<mxfile host="app.diagrams.net" agent="Mozilla/5.0 (Windows NT 10.0; Win64; x64) AppleWebKit/537.36 (KHTML, like Gecko) Chrome/128.0.0.0 Safari/537.36 OPR/114.0.0.0 (Edition Campaign 34)" version="25.0.1">
  <diagram name="Page-1" id="Page-1">
    <mxGraphModel dx="1639" dy="898" grid="1" gridSize="10" guides="1" tooltips="1" connect="1" arrows="1" fold="1" page="1" pageScale="1" pageWidth="850" pageHeight="1100" math="0" shadow="0">
      <root>
        <mxCell id="0" />
        <mxCell id="1" parent="0" />
        <UserObject label="&lt;div style=&quot;font-size: 1px&quot;&gt;&lt;font style=&quot;font-size:14.11px;font-family:Calibri;color:#ffffff;direction:ltr;letter-spacing:0px;line-height:120%;opacity:1&quot;&gt;UserAccount&lt;br/&gt;&lt;/font&gt;&lt;/div&gt;" tags="Background" id="2">
          <mxCell style="verticalAlign=middle;align=center;overflow=width;vsdxID=1;fillColor=#4271c6;gradientColor=none;shape=stencil(nZBLDoAgDERP0z3SIyjew0SURgSD+Lu9kMZoXLhwN9O+tukAlrNpJg1SzDH4QW/URgNYgZTkjA4UkwJUgGXng+6DX1zLfmoymdXo17xh5zmRJ6Q42BWCfc2oJfdAr+Yv+AP9Cb7OJ3H/2JG1HNGz/84klThPVCc=);strokeColor=#ffffff;points=[];labelBackgroundColor=none;rounded=0;html=1;whiteSpace=wrap;" parent="1" vertex="1">
            <mxGeometry x="279" y="165" width="152" height="101" as="geometry" />
          </mxCell>
        </UserObject>
        <UserObject label="" tags="Background" id="3">
          <mxCell style="vsdxID=2;fillColor=#5b9bd5;gradientColor=none;shape=stencil(vVHLDsIgEPwajiQI6RfU+h8bu22JCGRB2/69kG1iazx58DazM/vIjjBtmiCi0CplCjecbZ8nYc5Ca+snJJsLEqYTph0C4Ujh4XvmEaqzont41gkL96naodXKrGF6YSfQtUi0OXXDVlqPfJNP6usotUhYbJIUMmQb/GGrAxpRljVycDBuc1hKM2LclX8/7H9nFfB+82Cd45T2+mcspcSRmu4F);strokeColor=#ffffff;points=[];labelBackgroundColor=none;rounded=0;html=1;whiteSpace=wrap;" parent="1" vertex="1">
            <mxGeometry x="165" width="127" height="76" as="geometry" />
          </mxCell>
        </UserObject>
        <mxCell id="4" style="vsdxID=3;fillColor=#5b9bd5;gradientColor=none;shape=stencil(XY9BEoMgDEVPk60DSdUDWHsPZ0BhVHCQant7YbIodveTvJ/8AHW7GTYNKPYY/KxPq6IBegKidUYHG5MC6oG60Qc9Bf92iuttyGRWqz/yhg/7apEtKL638sXoYl2BSpTVg244yqZq2tKSxO8Upyxn/7FSi1+i/gI=);strokeColor=#5b9bd5;points=[];labelBackgroundColor=none;rounded=0;html=1;whiteSpace=wrap;" parent="3" vertex="1">
          <mxGeometry width="127" height="76" as="geometry" />
        </mxCell>
        <mxCell id="5" value="&lt;div style=&quot;font-size: 1px&quot;&gt;&lt;font style=&quot;font-size:14.11px;font-family:Calibri;color:#ffffff;direction:ltr;letter-spacing:0px;line-height:120%;opacity:1&quot;&gt;Username&lt;br/&gt;&lt;/font&gt;&lt;/div&gt;" style="text;vsdxID=2;fillColor=none;gradientColor=none;strokeColor=none;points=[];labelBackgroundColor=none;rounded=0;html=1;whiteSpace=wrap;verticalAlign=middle;align=center;overflow=width;;html=1;" parent="3" vertex="1">
          <mxGeometry y="-0.2" width="127" height="76.2" as="geometry" />
        </mxCell>
        <UserObject label="" tags="Background" id="6">
          <mxCell style="vsdxID=4;fillColor=#5b9bd5;gradientColor=none;shape=stencil(vVHLDsIgEPwajiQI6RfU+h8bu22JCGRB2/69kG1iazx58DazM/vIjjBtmiCi0CplCjecbZ8nYc5Ca+snJJsLEqYTph0C4Ujh4XvmEaqzont41gkL96naodXKrGF6YSfQtUi0OXXDVlqPfJNP6usotUhYbJIUMmQb/GGrAxpRljVycDBuc1hKM2LclX8/7H9nFfB+82Cd45T2+mcspcSRmu4F);strokeColor=#ffffff;points=[];labelBackgroundColor=none;rounded=0;html=1;whiteSpace=wrap;" parent="1" vertex="1">
            <mxGeometry x="63" y="19" width="127" height="76" as="geometry" />
          </mxCell>
        </UserObject>
        <mxCell id="7" style="vsdxID=5;fillColor=#5b9bd5;gradientColor=none;shape=stencil(UzV2Ls5ILEhVNTIoLinKz04tz0wpyVA1dlE1MsrMy0gtyiwBslSNXVWNndPyi1LTi/JL81Ig/IJEkEoQKze/DGRCBUSfqQFIi5FBJQrXDaI0JzMPSamhuZGeCYpqQ0tDPTNzZB1ABsImiCOR5dBdBRSC+MjYFQA=);strokeColor=#5b9bd5;points=[];labelBackgroundColor=none;rounded=0;html=1;whiteSpace=wrap;" parent="6" vertex="1">
          <mxGeometry width="127" height="76" as="geometry" />
        </mxCell>
        <mxCell id="8" value="&lt;div style=&quot;font-size: 1px&quot;&gt;&lt;font style=&quot;font-size:14.11px;font-family:Calibri;color:#ffffff;direction:ltr;letter-spacing:0px;line-height:120%;opacity:1&quot;&gt;Password&lt;br/&gt;&lt;/font&gt;&lt;/div&gt;" style="text;vsdxID=4;fillColor=none;gradientColor=none;strokeColor=none;points=[];labelBackgroundColor=none;rounded=0;html=1;whiteSpace=wrap;verticalAlign=middle;align=center;overflow=width;;html=1;" parent="6" vertex="1">
          <mxGeometry y="-0.2" width="127" height="76.2" as="geometry" />
        </mxCell>
        <UserObject label="" tags="Background" id="9">
          <mxCell style="vsdxID=6;fillColor=#5b9bd5;gradientColor=none;shape=stencil(vVHLDsIgEPwajiQI6RfU+h8bu22JCGRB2/69kG1iazx58DazM/vIjjBtmiCi0CplCjecbZ8nYc5Ca+snJJsLEqYTph0C4Ujh4XvmEaqzont41gkL96naodXKrGF6YSfQtUi0OXXDVlqPfJNP6usotUhYbJIUMmQb/GGrAxpRljVycDBuc1hKM2LclX8/7H9nFfB+82Cd45T2+mcspcSRmu4F);strokeColor=#ffffff;points=[];labelBackgroundColor=none;rounded=0;html=1;whiteSpace=wrap;" parent="1" vertex="1">
            <mxGeometry x="12" y="95" width="127" height="76" as="geometry" />
          </mxCell>
        </UserObject>
        <mxCell id="10" style="vsdxID=7;fillColor=#5b9bd5;gradientColor=none;shape=stencil(UzV2Ls5ILEhVNTIoLinKz04tz0wpyVA1dlE1MsrMy0gtyiwBslSNXVWNndPyi1LTi/JL81Ig/IJEkEoQKze/DGRCBUSfqQFIi5FBJQrXDaI0JzMPSamRIapaQyMLPXNLZPVABsIeiBOR5dDdBBSC+MfYFQA=);strokeColor=#5b9bd5;points=[];labelBackgroundColor=none;rounded=0;html=1;whiteSpace=wrap;" parent="9" vertex="1">
          <mxGeometry width="127" height="76" as="geometry" />
        </mxCell>
        <mxCell id="11" value="&lt;div style=&quot;font-size: 1px&quot;&gt;&lt;font style=&quot;font-size:14.11px;font-family:Calibri;color:#ffffff;direction:ltr;letter-spacing:0px;line-height:120%;opacity:1&quot;&gt;Email&lt;br/&gt;&lt;/font&gt;&lt;/div&gt;" style="text;vsdxID=6;fillColor=none;gradientColor=none;strokeColor=none;points=[];labelBackgroundColor=none;rounded=0;html=1;whiteSpace=wrap;verticalAlign=middle;align=center;overflow=width;;html=1;" parent="9" vertex="1">
          <mxGeometry y="-0.2" width="127" height="76.2" as="geometry" />
        </mxCell>
        <UserObject label="" tags="Background" id="12">
          <mxCell style="vsdxID=8;fillColor=#5b9bd5;gradientColor=none;shape=stencil(vVHLDsIgEPwajiQI6RfU+h8bu22JCGRB2/69kG1iazx58DazM/vIjjBtmiCi0CplCjecbZ8nYc5Ca+snJJsLEqYTph0C4Ujh4XvmEaqzont41gkL96naodXKrGF6YSfQtUi0OXXDVlqPfJNP6usotUhYbJIUMmQb/GGrAxpRljVycDBuc1hKM2LclX8/7H9nFfB+82Cd45T2+mcspcSRmu4F);strokeColor=#ffffff;points=[];labelBackgroundColor=none;rounded=0;html=1;whiteSpace=wrap;" parent="1" vertex="1">
            <mxGeometry x="50" y="196" width="127" height="76" as="geometry" />
          </mxCell>
        </UserObject>
        <mxCell id="13" style="vsdxID=9;fillColor=#5b9bd5;gradientColor=none;shape=stencil(UzV2Ls5ILEhVNTIoLinKz04tz0wpyVA1dlE1MsrMy0gtyiwBslSNXVWNndPyi1LTi/JL81Ig/IJEkEoQKze/DGRCBUSfqQFIi5FBJQrXDaI0JzMPSamhBapaYyM9C0tk5UAGwhqIC5Hl0J0EFIJ4x9gVAA==);strokeColor=#5b9bd5;points=[];labelBackgroundColor=none;rounded=0;html=1;whiteSpace=wrap;" parent="12" vertex="1">
          <mxGeometry width="127" height="76" as="geometry" />
        </mxCell>
        <mxCell id="14" value="&lt;div style=&quot;font-size: 1px&quot;&gt;&lt;font style=&quot;font-size:14.11px;font-family:Calibri;color:#ffffff;direction:ltr;letter-spacing:0px;line-height:120%;opacity:1&quot;&gt;FirstName&lt;br/&gt;&lt;/font&gt;&lt;/div&gt;" style="text;vsdxID=8;fillColor=none;gradientColor=none;strokeColor=none;points=[];labelBackgroundColor=none;rounded=0;html=1;whiteSpace=wrap;verticalAlign=middle;align=center;overflow=width;;html=1;" parent="12" vertex="1">
          <mxGeometry y="-0.2" width="127" height="76.2" as="geometry" />
        </mxCell>
        <UserObject label="" tags="Background" id="15">
          <mxCell style="vsdxID=10;fillColor=#5b9bd5;gradientColor=none;shape=stencil(vVHLDsIgEPwajiQI6RfU+h8bu22JCGRB2/69kG1iazx58DazM/vIjjBtmiCi0CplCjecbZ8nYc5Ca+snJJsLEqYTph0C4Ujh4XvmEaqzont41gkL96naodXKrGF6YSfQtUi0OXXDVlqPfJNP6usotUhYbJIUMmQb/GGrAxpRljVycDBuc1hKM2LclX8/7H9nFfB+82Cd45T2+mcspcSRmu4F);strokeColor=#ffffff;points=[];labelBackgroundColor=none;rounded=0;html=1;whiteSpace=wrap;" parent="1" vertex="1">
            <mxGeometry x="88" y="298" width="127" height="76" as="geometry" />
          </mxCell>
        </UserObject>
        <mxCell id="16" style="vsdxID=11;fillColor=#5b9bd5;gradientColor=none;shape=stencil(UzV2Ls5ILEhVNTIoLinKz04tz0wpyVA1dlE1MsrMy0gtyiwBslSNXVWNndPyi1LTi/JL81Ig/IJEkEoQKze/DGRCBUSfqQFIi5FBJQrXDaI0JzMPSakhmlpdEws9SzNk9UAGwh6IE5Hl0N0EFIL4x9gVAA==);strokeColor=#5b9bd5;points=[];labelBackgroundColor=none;rounded=0;html=1;whiteSpace=wrap;" parent="15" vertex="1">
          <mxGeometry width="127" height="76" as="geometry" />
        </mxCell>
        <mxCell id="17" value="&lt;div style=&quot;font-size: 1px&quot;&gt;&lt;font style=&quot;font-size:14.11px;font-family:Calibri;color:#ffffff;direction:ltr;letter-spacing:0px;line-height:120%;opacity:1&quot;&gt;LastName&lt;br/&gt;&lt;/font&gt;&lt;/div&gt;" style="text;vsdxID=10;fillColor=none;gradientColor=none;strokeColor=none;points=[];labelBackgroundColor=none;rounded=0;html=1;whiteSpace=wrap;verticalAlign=middle;align=center;overflow=width;;html=1;" parent="15" vertex="1">
          <mxGeometry y="-0.2" width="127" height="76.2" as="geometry" />
        </mxCell>
        <UserObject label="" tags="Background" id="18">
          <mxCell style="vsdxID=12;fillColor=#5b9bd5;gradientColor=none;shape=stencil(vVHLDsIgEPwajiQI6RfU+h8bu22JCGRB2/69kG1iazx58DazM/vIjjBtmiCi0CplCjecbZ8nYc5Ca+snJJsLEqYTph0C4Ujh4XvmEaqzont41gkL96naodXKrGF6YSfQtUi0OXXDVlqPfJNP6usotUhYbJIUMmQb/GGrAxpRljVycDBuc1hKM2LclX8/7H9nFfB+82Cd45T2+mcspcSRmu4F);strokeColor=#ffffff;points=[];labelBackgroundColor=none;rounded=0;html=1;whiteSpace=wrap;" parent="1" vertex="1">
            <mxGeometry x="342" y="374" width="127" height="76" as="geometry" />
          </mxCell>
        </UserObject>
        <mxCell id="19" style="vsdxID=13;fillColor=#5b9bd5;gradientColor=none;shape=stencil(UzV2Ls5ILEhVNTIoLinKz04tz0wpyVA1dlE1MsrMy0gtyiwBslSNXVWNndPyi1LTi/JL81Ig/IJEkEoQKze/DGRCBUSfqQFIi5FBJQrXDaI0JzMPSamRgZ6xEYpqXUMTQz0zc2QtQAbCKogrkeXQnQUUgnjJ2BUA);strokeColor=#5b9bd5;points=[];labelBackgroundColor=none;rounded=0;html=1;whiteSpace=wrap;" parent="18" vertex="1">
          <mxGeometry width="127" height="76" as="geometry" />
        </mxCell>
        <mxCell id="20" value="&lt;div style=&quot;font-size: 1px&quot;&gt;&lt;font style=&quot;font-size:14.11px;font-family:Calibri;color:#ffffff;direction:ltr;letter-spacing:0px;line-height:120%;opacity:1&quot;&gt;CityId&lt;br/&gt;&lt;/font&gt;&lt;/div&gt;" style="text;vsdxID=12;fillColor=none;gradientColor=none;strokeColor=none;points=[];labelBackgroundColor=none;rounded=0;html=1;whiteSpace=wrap;verticalAlign=middle;align=center;overflow=width;;html=1;" parent="18" vertex="1">
          <mxGeometry y="-0.2" width="127" height="76.2" as="geometry" />
        </mxCell>
        <UserObject label="" tags="Background" id="21">
          <mxCell style="vsdxID=14;fillColor=#5b9bd5;gradientColor=none;shape=stencil(vVHLDsIgEPwajiQI6RfU+h8bu22JCGRB2/69kG1iazx58DazM/vIjjBtmiCi0CplCjecbZ8nYc5Ca+snJJsLEqYTph0C4Ujh4XvmEaqzont41gkL96naodXKrGF6YSfQtUi0OXXDVlqPfJNP6usotUhYbJIUMmQb/GGrAxpRljVycDBuc1hKM2LclX8/7H9nFfB+82Cd45T2+mcspcSRmu4F);strokeColor=#ffffff;points=[];labelBackgroundColor=none;rounded=0;html=1;whiteSpace=wrap;" parent="1" vertex="1">
            <mxGeometry x="292" width="127" height="76" as="geometry" />
          </mxCell>
        </UserObject>
        <mxCell id="22" style="vsdxID=15;fillColor=#5b9bd5;gradientColor=none;shape=stencil(UzV2Ls5ILEhVNTIoLinKz04tz0wpyVA1dlE1MsrMy0gtyiwBslSNXVWNndPyi1LTi/JL81Ig/IJEkEoQKze/DGRCBUSfqQFIi5FBJQrXDaI0JzMPt1IjQzM9M3Nk5UAGwhqIC5Hl0J0EFIJ4x9gVAA==);strokeColor=#5b9bd5;points=[];labelBackgroundColor=none;rounded=0;html=1;whiteSpace=wrap;" parent="21" vertex="1">
          <mxGeometry width="127" height="76" as="geometry" />
        </mxCell>
        <mxCell id="23" value="&lt;div style=&quot;font-size: 1px&quot;&gt;&lt;font style=&quot;font-size:14.11px;font-family:Calibri;color:#ffffff;direction:ltr;letter-spacing:0px;line-height:120%;opacity:1&quot;&gt;Phone&lt;br/&gt;&lt;/font&gt;&lt;/div&gt;" style="text;vsdxID=14;fillColor=none;gradientColor=none;strokeColor=none;points=[];labelBackgroundColor=none;rounded=0;html=1;whiteSpace=wrap;verticalAlign=middle;align=center;overflow=width;;html=1;" parent="21" vertex="1">
          <mxGeometry y="-0.2" width="127" height="76.2" as="geometry" />
        </mxCell>
        <UserObject label="" tags="Background" id="24">
          <mxCell style="vsdxID=16;fillColor=#5b9bd5;gradientColor=none;shape=stencil(vVHLDsIgEPwajiQI6RfU+h8bu22JCGRB2/69kG1iazx58DazM/vIjjBtmiCi0CplCjecbZ8nYc5Ca+snJJsLEqYTph0C4Ujh4XvmEaqzont41gkL96naodXKrGF6YSfQtUi0OXXDVlqPfJNP6usotUhYbJIUMmQb/GGrAxpRljVycDBuc1hKM2LclX8/7H9nFfB+82Cd45T2+mcspcSRmu4F);strokeColor=#ffffff;points=[];labelBackgroundColor=none;rounded=0;html=1;whiteSpace=wrap;" parent="1" vertex="1">
            <mxGeometry x="152" y="374" width="127" height="76" as="geometry" />
          </mxCell>
        </UserObject>
        <mxCell id="25" style="vsdxID=17;fillColor=#5b9bd5;gradientColor=none;shape=stencil(XU9bDsMgDDtNPjsBWbcDtOweSNCB2gKidI/bD5SP0f7Zjp04gMNmVTQg2JZTmM3b6WwBRxDCeWuSywUBSsBhCsk8U9i9Jh5VdVa0hlfd8KFcz2pEsO+BPsi6ON9YOfLLjR/sHb8W7d5mCvjfoprt7NyrSPQTyh8=);strokeColor=#5b9bd5;points=[];labelBackgroundColor=none;rounded=0;html=1;whiteSpace=wrap;" parent="24" vertex="1">
          <mxGeometry width="127" height="76" as="geometry" />
        </mxCell>
        <mxCell id="26" value="&lt;div style=&quot;font-size: 1px&quot;&gt;&lt;font style=&quot;font-size:14.11px;font-family:Calibri;color:#ffffff;direction:ltr;letter-spacing:0px;line-height:120%;opacity:1&quot;&gt;BirthDay&lt;br/&gt;&lt;/font&gt;&lt;/div&gt;" style="text;vsdxID=16;fillColor=none;gradientColor=none;strokeColor=none;points=[];labelBackgroundColor=none;rounded=0;html=1;whiteSpace=wrap;verticalAlign=middle;align=center;overflow=width;;html=1;" parent="24" vertex="1">
          <mxGeometry y="-0.2" width="127" height="76.2" as="geometry" />
        </mxCell>
        <UserObject label="" tags="Background" id="28">
          <mxCell style="vsdxID=19;fillColor=#5b9bd5;gradientColor=none;shape=stencil(vVHLDsIgEPwajiQI6RfU+h8bu22JCGRB2/69kG1iazx58DazM/vIjjBtmiCi0CplCjecbZ8nYc5Ca+snJJsLEqYTph0C4Ujh4XvmEaqzont41gkL96naodXKrGF6YSfQtUi0OXXDVlqPfJNP6usotUhYbJIUMmQb/GGrAxpRljVycDBuc1hKM2LclX8/7H9nFfB+82Cd45T2+mcspcSRmu4F);strokeColor=#ffffff;points=[];labelBackgroundColor=none;rounded=0;html=1;whiteSpace=wrap;" parent="1" vertex="1">
            <mxGeometry x="419" y="12" width="127" height="76" as="geometry" />
          </mxCell>
        </UserObject>
        <mxCell id="29" style="vsdxID=20;fillColor=#5b9bd5;gradientColor=none;shape=stencil(XY9NDgIhDIVP06UG28xi1oj3IIERogIB/Lu9kC6E2b3Xfm1fgWRxOllAUWqON/v2pjqgMyD64Gz2tSkgBSS3mO01x2cw7JPuZFeP+OobPjy3iD6C4jvZC6N3Hwb0cFqPSBOOYuKb+N/hiGNvn6mV+B9SPw==);strokeColor=#5b9bd5;points=[];labelBackgroundColor=none;rounded=0;html=1;whiteSpace=wrap;" parent="28" vertex="1">
          <mxGeometry width="127" height="76" as="geometry" />
        </mxCell>
        <mxCell id="30" value="&lt;div style=&quot;font-size: 1px&quot;&gt;&lt;font style=&quot;font-size:14.11px;font-family:Calibri;color:#ffffff;direction:ltr;letter-spacing:0px;line-height:120%;opacity:1&quot;&gt;UserId&lt;br/&gt;&lt;/font&gt;&lt;/div&gt;" style="text;vsdxID=19;fillColor=none;gradientColor=none;strokeColor=none;points=[];labelBackgroundColor=none;rounded=0;html=1;whiteSpace=wrap;verticalAlign=middle;align=center;overflow=width;;html=1;" parent="28" vertex="1">
          <mxGeometry y="-0.2" width="127" height="76.2" as="geometry" />
        </mxCell>
        <UserObject label="" tags="Background" id="31">
          <mxCell style="vsdxID=21;fillColor=#5b9bd5;gradientColor=none;shape=stencil(vVHLDsIgEPwajiQI6RfU+h8bu22JCGRB2/69kG1iazx58DazM/vIjjBtmiCi0CplCjecbZ8nYc5Ca+snJJsLEqYTph0C4Ujh4XvmEaqzont41gkL96naodXKrGF6YSfQtUi0OXXDVlqPfJNP6usotUhYbJIUMmQb/GGrAxpRljVycDBuc1hKM2LclX8/7H9nFfB+82Cd45T2+mcspcSRmu4F);strokeColor=#ffffff;points=[];labelBackgroundColor=none;rounded=0;html=1;whiteSpace=wrap;" parent="1" vertex="1">
            <mxGeometry x="57" y="736" width="127" height="76" as="geometry" />
          </mxCell>
        </UserObject>
        <mxCell id="32" style="vsdxID=22;fillColor=#5b9bd5;gradientColor=none;shape=stencil(XY9LDoAgDERP060BGqN7P/cwEYWoYBB/txfShehupn1tp4DVprpVgmCbd3aSp+69AqxBCG2UdNoHBdgAVoN1cnR2Nz35tYtkVIs94oaL5nIWRwS7P7YldNYmQfmP5WVW5CkexHuGEqa9f6RQoneweQA=);strokeColor=#5b9bd5;points=[];labelBackgroundColor=none;rounded=0;html=1;whiteSpace=wrap;" parent="31" vertex="1">
          <mxGeometry width="127" height="76" as="geometry" />
        </mxCell>
        <mxCell id="33" value="&lt;div style=&quot;font-size: 1px&quot;&gt;&lt;font style=&quot;font-size:14.11px;font-family:Calibri;color:#ffffff;direction:ltr;letter-spacing:0px;line-height:120%;opacity:1&quot;&gt;City&lt;br/&gt;&lt;/font&gt;&lt;/div&gt;" style="text;vsdxID=21;fillColor=none;gradientColor=none;strokeColor=none;points=[];labelBackgroundColor=none;rounded=0;html=1;whiteSpace=wrap;verticalAlign=middle;align=center;overflow=width;;html=1;" parent="31" vertex="1">
          <mxGeometry y="-0.2" width="127" height="76.2" as="geometry" />
        </mxCell>
        <UserObject label="" tags="Background" id="34">
          <mxCell style="vsdxID=23;fillColor=#5b9bd5;gradientColor=none;shape=stencil(vVHLDsIgEPwajiQI6RfU+h8bu22JCGRB2/69kG1iazx58DazM/vIjjBtmiCi0CplCjecbZ8nYc5Ca+snJJsLEqYTph0C4Ujh4XvmEaqzont41gkL96naodXKrGF6YSfQtUi0OXXDVlqPfJNP6usotUhYbJIUMmQb/GGrAxpRljVycDBuc1hKM2LclX8/7H9nFfB+82Cd45T2+mcspcSRmu4F);strokeColor=#ffffff;points=[];labelBackgroundColor=none;rounded=0;html=1;whiteSpace=wrap;" parent="1" vertex="1">
            <mxGeometry x="57" y="628" width="127" height="76" as="geometry" />
          </mxCell>
        </UserObject>
        <mxCell id="35" style="vsdxID=24;fillColor=#5b9bd5;gradientColor=none;shape=stencil(UzV2Ls5ILEhVNTIoLinKz04tz0wpyVA1dlE1MsrMy0gtyiwBslSNXVWNndPyi1LTi/JL81Ig/IJEkEoQKze/DGRCBUSfqQFIi5FBJQrXDaI0JzMPSakhmlpDA3M9I0tk9UAGwh6IE5Hl0N0EFIL4x9gVAA==);strokeColor=#5b9bd5;points=[];labelBackgroundColor=none;rounded=0;html=1;whiteSpace=wrap;" parent="34" vertex="1">
          <mxGeometry width="127" height="76" as="geometry" />
        </mxCell>
        <mxCell id="36" value="&lt;div style=&quot;font-size: 1px&quot;&gt;&lt;font style=&quot;font-size:14.11px;font-family:Calibri;color:#ffffff;direction:ltr;letter-spacing:0px;line-height:120%;opacity:1&quot;&gt;CityId&lt;br/&gt;&lt;/font&gt;&lt;/div&gt;" style="text;vsdxID=23;fillColor=none;gradientColor=none;strokeColor=none;points=[];labelBackgroundColor=none;rounded=0;html=1;whiteSpace=wrap;verticalAlign=middle;align=center;overflow=width;;html=1;" parent="34" vertex="1">
          <mxGeometry y="-0.2" width="127" height="76.2" as="geometry" />
        </mxCell>
        <UserObject label="" tags="Background" id="37">
          <mxCell style="vsdxID=25;fillColor=#5b9bd5;gradientColor=none;shape=stencil(vVHLDsIgEPwajiQI6RfU+h8bu22JCGRB2/69kG1iazx58DazM/vIjjBtmiCi0CplCjecbZ8nYc5Ca+snJJsLEqYTph0C4Ujh4XvmEaqzont41gkL96naodXKrGF6YSfQtUi0OXXDVlqPfJNP6usotUhYbJIUMmQb/GGrAxpRljVycDBuc1hKM2LclX8/7H9nFfB+82Cd45T2+mcspcSRmu4F);strokeColor=#ffffff;points=[];labelBackgroundColor=none;rounded=0;html=1;whiteSpace=wrap;" parent="1" vertex="1">
            <mxGeometry x="82" y="825" width="127" height="76" as="geometry" />
          </mxCell>
        </UserObject>
        <mxCell id="38" style="vsdxID=26;fillColor=#5b9bd5;gradientColor=none;shape=stencil(XY9LDoAgDERP06UJUj0B4j1MRCEqGMTf7YV0obibaV/bKaDYdLcq4GwL3k3qNH3QgA1wbqxW3oSoACWgGJxXo3e77cmvXSKTWtyRNlw0V7M0wtmd2ZbQ2dgPWmKVsUUOR/EeoXzf3j9QLNEzKB8=);strokeColor=#5b9bd5;points=[];labelBackgroundColor=none;rounded=0;html=1;whiteSpace=wrap;" parent="37" vertex="1">
          <mxGeometry width="127" height="76" as="geometry" />
        </mxCell>
        <mxCell id="39" value="&lt;div style=&quot;font-size: 1px&quot;&gt;&lt;font style=&quot;font-size:14.11px;font-family:Calibri;color:#ffffff;direction:ltr;letter-spacing:0px;line-height:120%;opacity:1&quot;&gt;CountryId&lt;br/&gt;&lt;/font&gt;&lt;/div&gt;" style="text;vsdxID=25;fillColor=none;gradientColor=none;strokeColor=none;points=[];labelBackgroundColor=none;rounded=0;html=1;whiteSpace=wrap;verticalAlign=middle;align=center;overflow=width;;html=1;" parent="37" vertex="1">
          <mxGeometry y="-0.2" width="127" height="76.2" as="geometry" />
        </mxCell>
        <UserObject label="&lt;div style=&quot;font-size: 1px&quot;&gt;&lt;font style=&quot;font-size:14.11px;font-family:Calibri;color:#ffffff;direction:ltr;letter-spacing:0px;line-height:120%;opacity:1&quot;&gt;has&lt;br/&gt;&lt;br/&gt;&lt;/font&gt;&lt;/div&gt;" tags="Background" id="40">
          <mxCell style="verticalAlign=middle;align=center;overflow=width;vsdxID=27;fillColor=#a5a5a5;gradientColor=none;shape=stencil(nZBNDoUgDIRP0z3SeAKf3sNElEYEg/h3+wdpjIaFC3cz9OukDGC16HZWIMUSvBvVTl3QgD+QkqxWnkJUgDVg1TuvBu9W27Gf20QmNbktJRy8V4q0IsXJthDsG2YN2Qd7DS+4fGGz3Bfyc2Z2axT3J3syhjt6zvNS4hMXivUf);strokeColor=#ffffff;points=[];labelBackgroundColor=none;rounded=0;html=1;whiteSpace=wrap;" parent="1" vertex="1">
            <mxGeometry x="190" y="520" width="101" height="76" as="geometry" />
          </mxCell>
        </UserObject>
        <mxCell id="41" style="vsdxID=28;fillColor=none;gradientColor=none;edgeStyle=none;strokeColor=none;points=[[-6.37,19.74,0]];labelBackgroundColor=#ffffff;rounded=0;html=1;whiteSpace=wrap;;flipV=1;;flipH=1;" parent="1" vertex="1">
          <mxGeometry x="240" y="266" width="115" height="254" as="geometry" />
        </mxCell>
        <mxCell id="46" value="&lt;div style=&quot;font-size: 1px&quot;&gt;&lt;font style=&quot;font-size:11.29px;font-family:Calibri;color:#2e4f6c;direction:ltr;letter-spacing:0px;line-height:120%;opacity:1&quot;&gt;n&lt;br/&gt;&lt;/font&gt;&lt;/div&gt;" style="text;vsdxID=28;fillColor=none;gradientColor=none;edgeStyle=none;strokeColor=none;points=[[-6.37,19.74,0]];labelBackgroundColor=#ffffff;rounded=0;html=1;whiteSpace=wrap;verticalAlign=middle;align=center;overflow=width;;html=1;" parent="41" vertex="1">
          <mxGeometry x="-85.37" y="-139.42" width="56.44" height="24.84" as="geometry" />
        </mxCell>
        <mxCell id="47" value="1" style="vsdxID=33;fillColor=none;gradientColor=none;edgeStyle=none;strokeColor=none;points=[[0.5,9.14,0]];labelBackgroundColor=#ffffff;rounded=0;html=1;whiteSpace=wrap;;flipV=1;" parent="1" vertex="1">
          <mxGeometry x="257" y="574" width="25" height="111" as="geometry" />
        </mxCell>
        <mxCell id="52" value="&lt;div style=&quot;font-size: 1px&quot;&gt;&lt;font style=&quot;font-size:11.29px;font-family:Calibri;color:#2e4f6c;direction:ltr;letter-spacing:0px;line-height:120%;opacity:1&quot;&gt;1&lt;br/&gt;&lt;/font&gt;&lt;/div&gt;" style="text;vsdxID=33;fillColor=none;gradientColor=none;edgeStyle=none;strokeColor=none;points=[[0.5,9.14,0]];labelBackgroundColor=#ffffff;rounded=0;html=1;whiteSpace=wrap;verticalAlign=middle;align=center;overflow=width;;html=1;" parent="47" vertex="1">
          <mxGeometry x="-15.52" y="-68.25" width="56.44" height="24.84" as="geometry" />
        </mxCell>
        <UserObject label="" tags="Background" id="54">
          <mxCell style="vsdxID=39;fillColor=#5b9bd5;gradientColor=none;shape=stencil(vVHLDsIgEPwajiQI6RfU+h8bu22JCGRB2/69kG1iazx58DazM/vIjjBtmiCi0CplCjecbZ8nYc5Ca+snJJsLEqYTph0C4Ujh4XvmEaqzont41gkL96naodXKrGF6YSfQtUi0OXXDVlqPfJNP6usotUhYbJIUMmQb/GGrAxpRljVycDBuc1hKM2LclX8/7H9nFfB+82Cd45T2+mcspcSRmu4F);strokeColor=#ffffff;points=[];labelBackgroundColor=none;rounded=0;html=1;whiteSpace=wrap;" parent="1" vertex="1">
            <mxGeometry x="416" y="977" width="127" height="76" as="geometry" />
          </mxCell>
        </UserObject>
        <mxCell id="55" style="vsdxID=40;fillColor=#5b9bd5;gradientColor=none;shape=stencil(UzV2Ls5ILEhVNTIoLinKz04tz0wpyVA1dlE1MsrMy0gtyiwBslSNXVWNndPyi1LTi/JL81Ig/IJEkEoQKze/DGRCBUSfqQFIi5FBJQrXDaI0JzMPSamuiYmemTmKcmNLPQtkDUAGwiKIG5Hl0B0FFIJ4yNgVAA==);strokeColor=#5b9bd5;points=[];labelBackgroundColor=none;rounded=0;html=1;whiteSpace=wrap;" parent="54" vertex="1">
          <mxGeometry width="127" height="76" as="geometry" />
        </mxCell>
        <mxCell id="56" value="&lt;div style=&quot;font-size: 1px&quot;&gt;&lt;font style=&quot;font-size:14.11px;font-family:Calibri;color:#ffffff;direction:ltr;letter-spacing:0px;line-height:120%;opacity:1&quot;&gt;CountryId&lt;br/&gt;&lt;/font&gt;&lt;/div&gt;" style="text;vsdxID=39;fillColor=none;gradientColor=none;strokeColor=none;points=[];labelBackgroundColor=none;rounded=0;html=1;whiteSpace=wrap;verticalAlign=middle;align=center;overflow=width;;html=1;" parent="54" vertex="1">
          <mxGeometry y="-0.2" width="127" height="76.2" as="geometry" />
        </mxCell>
        <UserObject label="" tags="Background" id="57">
          <mxCell style="vsdxID=41;fillColor=#5b9bd5;gradientColor=none;shape=stencil(vVHLDsIgEPwajiQI6RfU+h8bu22JCGRB2/69kG1iazx58DazM/vIjjBtmiCi0CplCjecbZ8nYc5Ca+snJJsLEqYTph0C4Ujh4XvmEaqzont41gkL96naodXKrGF6YSfQtUi0OXXDVlqPfJNP6usotUhYbJIUMmQb/GGrAxpRljVycDBuc1hKM2LclX8/7H9nFfB+82Cd45T2+mcspcSRmu4F);strokeColor=#ffffff;points=[];labelBackgroundColor=none;rounded=0;html=1;whiteSpace=wrap;" parent="1" vertex="1">
            <mxGeometry x="50" y="965" width="127" height="76" as="geometry" />
          </mxCell>
        </UserObject>
        <mxCell id="58" style="vsdxID=42;fillColor=#5b9bd5;gradientColor=none;shape=stencil(fY9LDoAgDERP063BNp4A9R4mohAVDOLv9kK68LNwN9O+tlMguehmVoBiCd4Najdt0EAlIBqrlTchKqAKSHbOq9671bbs5yaRSU1uSxsOnitEGkFxvmzN6GjsA82RMqIfPIr7DCd89r6RYonfoeoC);strokeColor=#5b9bd5;points=[];labelBackgroundColor=none;rounded=0;html=1;whiteSpace=wrap;" parent="57" vertex="1">
          <mxGeometry width="127" height="76" as="geometry" />
        </mxCell>
        <mxCell id="59" value="&lt;div style=&quot;font-size: 1px&quot;&gt;&lt;font style=&quot;font-size:14.11px;font-family:Calibri;color:#ffffff;direction:ltr;letter-spacing:0px;line-height:120%;opacity:1&quot;&gt;Country&lt;br/&gt;&lt;/font&gt;&lt;/div&gt;" style="text;vsdxID=41;fillColor=none;gradientColor=none;strokeColor=none;points=[];labelBackgroundColor=none;rounded=0;html=1;whiteSpace=wrap;verticalAlign=middle;align=center;overflow=width;;html=1;" parent="57" vertex="1">
          <mxGeometry y="-0.2" width="127" height="76.2" as="geometry" />
        </mxCell>
        <UserObject label="&lt;div style=&quot;font-size: 1px&quot;&gt;&lt;font style=&quot;font-size:14.11px;font-family:Calibri;color:#ffffff;direction:ltr;letter-spacing:0px;line-height:120%;opacity:1&quot;&gt;has&lt;br/&gt;&lt;/font&gt;&lt;/div&gt;" tags="Background" id="60">
          <mxCell style="verticalAlign=middle;align=center;overflow=width;vsdxID=43;fillColor=#a5a5a5;gradientColor=none;shape=stencil(nZBNDoUgDIRP0z3SeAKf3sNElEYEg/h3+wdpjIaFC3cz9OukDGC16HZWIMUSvBvVTl3QgD+QkqxWnkJUgDVg1TuvBu9W27Gf20QmNbktJRy8V4q0IsXJthDsG2YN2Qd7DS+4fGGz3Bfyc2Z2axT3J3syhjt6zvNS4hMXivUf);strokeColor=#ffffff;points=[];labelBackgroundColor=none;rounded=0;html=1;whiteSpace=wrap;" parent="1" vertex="1">
            <mxGeometry x="298" y="825" width="101" height="76" as="geometry" />
          </mxCell>
        </UserObject>
        <mxCell id="61" style="vsdxID=44;fillColor=none;gradientColor=none;edgeStyle=none;strokeColor=none;points=[[0.5,5.86,0]];labelBackgroundColor=#ffffff;rounded=0;html=1;whiteSpace=wrap;;flipV=1;" parent="1" vertex="1">
          <mxGeometry x="285" y="940" width="25" height="66" as="geometry" />
        </mxCell>
        <mxCell id="66" value="&lt;div style=&quot;font-size: 1px&quot;&gt;&lt;font style=&quot;font-size:11.29px;font-family:Calibri;color:#2e4f6c;direction:ltr;letter-spacing:0px;line-height:120%;opacity:1&quot;&gt;1&lt;br/&gt;&lt;/font&gt;&lt;/div&gt;" style="text;vsdxID=44;fillColor=none;gradientColor=none;edgeStyle=none;strokeColor=none;points=[[0.5,5.86,0]];labelBackgroundColor=#ffffff;rounded=0;html=1;whiteSpace=wrap;verticalAlign=middle;align=center;overflow=width;;html=1;" parent="61" vertex="1">
          <mxGeometry x="-15.52" y="-45.48" width="56.44" height="24.84" as="geometry" />
        </mxCell>
        <mxCell id="67" style="vsdxID=49;fillColor=none;gradientColor=none;edgeStyle=none;strokeColor=none;points=[[0.5,3.81,0]];labelBackgroundColor=#ffffff;rounded=0;html=1;whiteSpace=wrap;;flipV=1;" parent="1" vertex="1">
          <mxGeometry x="359" y="825" width="25" height="39" as="geometry" />
        </mxCell>
        <mxCell id="72" value="&lt;div style=&quot;font-size: 1px&quot;&gt;&lt;font style=&quot;font-size:11.29px;font-family:Calibri;color:#2e4f6c;direction:ltr;letter-spacing:0px;line-height:120%;opacity:1&quot;&gt;n&lt;br/&gt;&lt;/font&gt;&lt;/div&gt;" style="text;vsdxID=49;fillColor=none;gradientColor=none;edgeStyle=none;strokeColor=none;points=[[0.5,3.81,0]];labelBackgroundColor=#ffffff;rounded=0;html=1;whiteSpace=wrap;verticalAlign=middle;align=center;overflow=width;;html=1;" parent="67" vertex="1">
          <mxGeometry x="-15.52" y="-32.37" width="56.44" height="24.84" as="geometry" />
        </mxCell>
        <UserObject label="" tags="Background" id="74">
          <mxCell style="vsdxID=55;fillColor=#5b9bd5;gradientColor=none;shape=stencil(vVHLDsIgEPwajiQI6RfU+h8bu22JCGRB2/69kG1iazx58DazM/vIjjBtmiCi0CplCjecbZ8nYc5Ca+snJJsLEqYTph0C4Ujh4XvmEaqzont41gkL96naodXKrGF6YSfQtUi0OXXDVlqPfJNP6usotUhYbJIUMmQb/GGrAxpRljVycDBuc1hKM2LclX8/7H9nFfB+82Cd45T2+mcspcSRmu4F);strokeColor=#ffffff;points=[];labelBackgroundColor=none;rounded=0;html=1;whiteSpace=wrap;" parent="1" vertex="1">
            <mxGeometry x="788" y="38" width="127" height="76" as="geometry" />
          </mxCell>
        </UserObject>
        <mxCell id="75" style="vsdxID=56;fillColor=#5b9bd5;gradientColor=none;shape=stencil(XY9LDoAgDERP060BGk1c+7mHiShEBYP4u72QLhR3M+1rOwWsNtWtEgTbvLOTPHXvFWANQmijpNM+KMAGsBqsk6Ozu+nJr10ko1rsETdcNJezOCLYndiW0FmbD8rLrEhgntJBvFco4Lf3TxRK9A02Dw==);strokeColor=#5b9bd5;points=[];labelBackgroundColor=none;rounded=0;html=1;whiteSpace=wrap;" parent="74" vertex="1">
          <mxGeometry width="127" height="76" as="geometry" />
        </mxCell>
        <mxCell id="76" value="&lt;div style=&quot;font-size: 1px&quot;&gt;&lt;font style=&quot;font-size:14.11px;font-family:Calibri;color:#ffffff;direction:ltr;letter-spacing:0px;line-height:120%;opacity:1&quot;&gt;UserId&lt;br/&gt;&lt;/font&gt;&lt;/div&gt;" style="text;vsdxID=55;fillColor=none;gradientColor=none;strokeColor=none;points=[];labelBackgroundColor=none;rounded=0;html=1;whiteSpace=wrap;verticalAlign=middle;align=center;overflow=width;;html=1;" parent="74" vertex="1">
          <mxGeometry y="-0.2" width="127" height="76.2" as="geometry" />
        </mxCell>
        <UserObject label="" tags="Background" id="77">
          <mxCell style="vsdxID=57;fillColor=#5b9bd5;gradientColor=none;shape=stencil(vVHLDsIgEPwajiQI6RfU+h8bu22JCGRB2/69kG1iazx58DazM/vIjjBtmiCi0CplCjecbZ8nYc5Ca+snJJsLEqYTph0C4Ujh4XvmEaqzont41gkL96naodXKrGF6YSfQtUi0OXXDVlqPfJNP6usotUhYbJIUMmQb/GGrAxpRljVycDBuc1hKM2LclX8/7H9nFfB+82Cd45T2+mcspcSRmu4F);strokeColor=#ffffff;points=[];labelBackgroundColor=none;rounded=0;html=1;whiteSpace=wrap;" parent="1" vertex="1">
            <mxGeometry x="653" y="38" width="127" height="76" as="geometry" />
          </mxCell>
        </UserObject>
        <mxCell id="78" style="vsdxID=58;fillColor=#5b9bd5;gradientColor=none;shape=stencil(XY9LDoAgDERP063BNibu/dzDRBSigkH83V5IF4q7mfa1nQJVm+pWCSg27+wkT917BVQDojZKOu2DAmqAqsE6OTq7m5792kUyqsUeccPFc4WIIyjuxLaMztp80JIyTOA8pYN4r3DAb++fKJT4G2oe);strokeColor=#5b9bd5;points=[];labelBackgroundColor=none;rounded=0;html=1;whiteSpace=wrap;" parent="77" vertex="1">
          <mxGeometry width="127" height="76" as="geometry" />
        </mxCell>
        <mxCell id="79" value="&lt;div style=&quot;font-size: 1px&quot;&gt;&lt;font style=&quot;font-size:14.11px;font-family:Calibri;color:#ffffff;direction:ltr;letter-spacing:0px;line-height:120%;opacity:1&quot;&gt;BoughtId&lt;br/&gt;&lt;/font&gt;&lt;/div&gt;" style="text;vsdxID=57;fillColor=none;gradientColor=none;strokeColor=none;points=[];labelBackgroundColor=none;rounded=0;html=1;whiteSpace=wrap;verticalAlign=middle;align=center;overflow=width;;html=1;" parent="77" vertex="1">
          <mxGeometry y="-0.2" width="127" height="76.2" as="geometry" />
        </mxCell>
        <UserObject label="" tags="Background" id="80">
          <mxCell style="vsdxID=59;fillColor=#5b9bd5;gradientColor=none;shape=stencil(vVHLDsIgEPwajiQI6RfU+h8bu22JCGRB2/69kG1iazx58DazM/vIjjBtmiCi0CplCjecbZ8nYc5Ca+snJJsLEqYTph0C4Ujh4XvmEaqzont41gkL96naodXKrGF6YSfQtUi0OXXDVlqPfJNP6usotUhYbJIUMmQb/GGrAxpRljVycDBuc1hKM2LclX8/7H9nFfB+82Cd45T2+mcspcSRmu4F);strokeColor=#ffffff;points=[];labelBackgroundColor=none;rounded=0;html=1;whiteSpace=wrap;" parent="1" vertex="1">
            <mxGeometry x="723" y="272" width="127" height="76" as="geometry" />
          </mxCell>
        </UserObject>
        <mxCell id="81" style="vsdxID=60;fillColor=#5b9bd5;gradientColor=none;shape=stencil(UzV2Ls5ILEhVNTIoLinKz04tz0wpyVA1dlE1MsrMy0gtyiwBslSNXVWNndPyi1LTi/JL81Ig/IJEkEoQKze/DGRCBUSfqQFIi5FBJQrXDaI0JzMPt1JdVLVABsIOiPOQ5dDdAxSC+MXYFQA=);strokeColor=#5b9bd5;points=[];labelBackgroundColor=none;rounded=0;html=1;whiteSpace=wrap;" parent="80" vertex="1">
          <mxGeometry width="127" height="76" as="geometry" />
        </mxCell>
        <mxCell id="82" value="&lt;div style=&quot;font-size: 1px&quot;&gt;&lt;font style=&quot;font-size:14.11px;font-family:Calibri;color:#ffffff;direction:ltr;letter-spacing:0px;line-height:120%;opacity:1&quot;&gt;ShopId&lt;br/&gt;&lt;/font&gt;&lt;/div&gt;" style="text;vsdxID=59;fillColor=none;gradientColor=none;strokeColor=none;points=[];labelBackgroundColor=none;rounded=0;html=1;whiteSpace=wrap;verticalAlign=middle;align=center;overflow=width;;html=1;" parent="80" vertex="1">
          <mxGeometry y="-0.2" width="127" height="76.2" as="geometry" />
        </mxCell>
        <UserObject label="&lt;div style=&quot;font-size: 1px&quot;&gt;&lt;font style=&quot;font-size:14.11px;font-family:Calibri;color:#ffffff;direction:ltr;letter-spacing:0px;line-height:120%;opacity:1&quot;&gt;buy&lt;br/&gt;&lt;/font&gt;&lt;/div&gt;" tags="Background" id="83">
          <mxCell style="verticalAlign=middle;align=center;overflow=width;vsdxID=61;fillColor=#a5a5a5;gradientColor=none;shape=stencil(nZBNDoUgDIRP0z3SeAKf3sNElEYEg/h3+wdpjIaFC3cz9OukDGC16HZWIMUSvBvVTl3QgD+QkqxWnkJUgDVg1TuvBu9W27Gf20QmNbktJRy8V4q0IsXJthDsG2YN2Qd7DS+4fGGz3Bfyc2Z2axT3J3syhjt6zvNS4hMXivUf);strokeColor=#ffffff;points=[];labelBackgroundColor=none;rounded=0;html=1;whiteSpace=wrap;" parent="1" vertex="1">
            <mxGeometry x="533" y="139" width="101" height="76" as="geometry" />
          </mxCell>
        </UserObject>
        <mxCell id="84" style="vsdxID=62;fillColor=none;gradientColor=none;edgeStyle=none;strokeColor=none;points=[[0,0.5,0],[1,0.5,0]];labelBackgroundColor=#ffffff;rounded=0;html=1;whiteSpace=wrap;" parent="1" vertex="1">
          <mxGeometry x="431" y="177" width="118" height="25" as="geometry" />
        </mxCell>
        <mxCell id="85" value="&lt;div style=&quot;font-size: 1px&quot;&gt;&lt;font style=&quot;font-size:11.29px;font-family:Calibri;color:#2e4f6c;direction:ltr;letter-spacing:0px;line-height:120%;opacity:1&quot;&gt;1&lt;br/&gt;&lt;/font&gt;&lt;/div&gt;" style="text;vsdxID=62;fillColor=none;gradientColor=none;edgeStyle=none;strokeColor=none;points=[[0,0.5,0],[1,0.5,0]];labelBackgroundColor=#ffffff;rounded=0;html=1;whiteSpace=wrap;verticalAlign=middle;align=center;overflow=width;;html=1;" parent="84" vertex="1">
          <mxGeometry x="31.04" y="-0.12" width="56.44" height="24.84" as="geometry" />
        </mxCell>
        <mxCell id="86" style="vsdxID=67;fillColor=none;gradientColor=none;edgeStyle=none;strokeColor=none;points=[[0,0.5,0],[1,0.5,0]];labelBackgroundColor=#ffffff;rounded=0;html=1;whiteSpace=wrap;" parent="1" vertex="1">
          <mxGeometry x="626" y="171" width="84" height="25" as="geometry" />
        </mxCell>
        <mxCell id="87" value="&lt;div style=&quot;font-size: 1px&quot;&gt;&lt;font style=&quot;font-size:11.29px;font-family:Calibri;color:#2e4f6c;direction:ltr;letter-spacing:0px;line-height:120%;opacity:1&quot;&gt;n&lt;br/&gt;&lt;/font&gt;&lt;/div&gt;" style="text;vsdxID=67;fillColor=none;gradientColor=none;edgeStyle=none;strokeColor=none;points=[[0,0.5,0],[1,0.5,0]];labelBackgroundColor=#ffffff;rounded=0;html=1;whiteSpace=wrap;verticalAlign=middle;align=center;overflow=width;;html=1;" parent="86" vertex="1">
          <mxGeometry x="14.11" y="-0.12" width="56.44" height="24.84" as="geometry" />
        </mxCell>
        <UserObject label="" tags="Background" id="89">
          <mxCell style="vsdxID=73;fillColor=#5b9bd5;gradientColor=none;shape=stencil(vVHLDsIgEPwajiQI6RfU+h8bu22JCGRB2/69kG1iazx58DazM/vIjjBtmiCi0CplCjecbZ8nYc5Ca+snJJsLEqYTph0C4Ujh4XvmEaqzont41gkL96naodXKrGF6YSfQtUi0OXXDVlqPfJNP6usotUhYbJIUMmQb/GGrAxpRljVycDBuc1hKM2LclX8/7H9nFfB+82Cd45T2+mcspcSRmu4F);strokeColor=#ffffff;points=[];labelBackgroundColor=none;rounded=0;html=1;whiteSpace=wrap;" parent="1" vertex="1">
            <mxGeometry x="1320" y="297" width="127" height="76" as="geometry" />
          </mxCell>
        </UserObject>
        <mxCell id="90" style="vsdxID=74;fillColor=#5b9bd5;gradientColor=none;shape=stencil(UzV2Ls5ILEhVNTIoLinKz04tz0wpyVA1dlE1MsrMy0gtyiwBslSNXVWNndPyi1LTi/JL81Ig/IJEkEoQKze/DGRCBUSfqQFIi5FBJQrXDaI0JzMPSamuhZ6JEYpqXXNjPWNjZB1ABsImiCOR5dBdBRSC+MjYFQA=);strokeColor=#5b9bd5;points=[];labelBackgroundColor=none;rounded=0;html=1;whiteSpace=wrap;" parent="89" vertex="1">
          <mxGeometry width="127" height="76" as="geometry" />
        </mxCell>
        <mxCell id="91" value="&lt;div style=&quot;font-size: 1px&quot;&gt;&lt;font style=&quot;font-size:14.11px;font-family:Calibri;color:#ffffff;direction:ltr;letter-spacing:0px;line-height:120%;opacity:1&quot;&gt;ItemId&lt;br/&gt;&lt;/font&gt;&lt;/div&gt;" style="text;vsdxID=73;fillColor=none;gradientColor=none;strokeColor=none;points=[];labelBackgroundColor=none;rounded=0;html=1;whiteSpace=wrap;verticalAlign=middle;align=center;overflow=width;;html=1;" parent="89" vertex="1">
          <mxGeometry y="-0.2" width="127" height="76.2" as="geometry" />
        </mxCell>
        <UserObject label="" tags="Background" id="92">
          <mxCell style="vsdxID=75;fillColor=#5b9bd5;gradientColor=none;shape=stencil(vVHLDsIgEPwajiQI6RfU+h8bu22JCGRB2/69kG1iazx58DazM/vIjjBtmiCi0CplCjecbZ8nYc5Ca+snJJsLEqYTph0C4Ujh4XvmEaqzont41gkL96naodXKrGF6YSfQtUi0OXXDVlqPfJNP6usotUhYbJIUMmQb/GGrAxpRljVycDBuc1hKM2LclX8/7H9nFfB+82Cd45T2+mcspcSRmu4F);strokeColor=#ffffff;points=[];labelBackgroundColor=none;rounded=0;html=1;whiteSpace=wrap;" parent="1" vertex="1">
            <mxGeometry x="1308" y="25" width="127" height="76" as="geometry" />
          </mxCell>
        </UserObject>
        <mxCell id="93" style="vsdxID=76;fillColor=#5b9bd5;gradientColor=none;shape=stencil(XY9LDoAgDERP0z228QR+7kEiClHBAP5uL6QLxd1M+9pOgZqg5aYARYjezeo0Q9RALSAaq5U3MSmgDqgZnVeTd7sd2G8yk1mt7sgbLp6rRR5BcRe2Z3Qx9oNiQVYlmsR7gtN9e/84qcSvUPcA);strokeColor=#5b9bd5;points=[];labelBackgroundColor=none;rounded=0;html=1;whiteSpace=wrap;" parent="92" vertex="1">
          <mxGeometry width="127" height="76" as="geometry" />
        </mxCell>
        <mxCell id="94" value="&lt;div style=&quot;font-size: 1px&quot;&gt;&lt;font style=&quot;font-size:14.11px;font-family:Calibri;color:#ffffff;direction:ltr;letter-spacing:0px;line-height:120%;opacity:1&quot;&gt;ServiceId&lt;br/&gt;&lt;/font&gt;&lt;/div&gt;" style="text;vsdxID=75;fillColor=none;gradientColor=none;strokeColor=none;points=[];labelBackgroundColor=none;rounded=0;html=1;whiteSpace=wrap;verticalAlign=middle;align=center;overflow=width;;html=1;" parent="92" vertex="1">
          <mxGeometry y="-0.2" width="127" height="76.2" as="geometry" />
        </mxCell>
        <UserObject label="" tags="Background" id="95">
          <mxCell style="vsdxID=77;fillColor=#5b9bd5;gradientColor=none;shape=stencil(vVHLDsIgEPwajiQI6RfU+h8bu22JCGRB2/69kG1iazx58DazM/vIjjBtmiCi0CplCjecbZ8nYc5Ca+snJJsLEqYTph0C4Ujh4XvmEaqzont41gkL96naodXKrGF6YSfQtUi0OXXDVlqPfJNP6usotUhYbJIUMmQb/GGrAxpRljVycDBuc1hKM2LclX8/7H9nFfB+82Cd45T2+mcspcSRmu4F);strokeColor=#ffffff;points=[];labelBackgroundColor=none;rounded=0;html=1;whiteSpace=wrap;" parent="1" vertex="1">
            <mxGeometry x="1104" y="25" width="127" height="76" as="geometry" />
          </mxCell>
        </UserObject>
        <mxCell id="96" style="vsdxID=78;fillColor=#5b9bd5;gradientColor=none;shape=stencil(XY9LDoAgDERP0z3SmOha8R4mohAVCOLv9kK6UNzNtK/tFLDZVO8kcLYFb2d56iEowBY410ZJr0NUgAKwGa2Xk7e7Gci7PpFJrfZIGy6aK1ka4ezObEfoos0HrasMLXI2ivcGxfv2/nliiX5B8QA=);strokeColor=#5b9bd5;points=[];labelBackgroundColor=none;rounded=0;html=1;whiteSpace=wrap;" parent="95" vertex="1">
          <mxGeometry width="127" height="76" as="geometry" />
        </mxCell>
        <mxCell id="97" value="&lt;div style=&quot;font-size: 1px&quot;&gt;&lt;font style=&quot;font-size:14.11px;font-family:Calibri;color:#ffffff;direction:ltr;letter-spacing:0px;line-height:120%;opacity:1&quot;&gt;ShopId&lt;br/&gt;&lt;/font&gt;&lt;/div&gt;" style="text;vsdxID=77;fillColor=none;gradientColor=none;strokeColor=none;points=[];labelBackgroundColor=none;rounded=0;html=1;whiteSpace=wrap;verticalAlign=middle;align=center;overflow=width;;html=1;" parent="95" vertex="1">
          <mxGeometry y="-0.2" width="127" height="76.2" as="geometry" />
        </mxCell>
        <UserObject label="" tags="Background" id="98">
          <mxCell style="vsdxID=79;fillColor=#5b9bd5;gradientColor=none;shape=stencil(vVHLDsIgEPwajiQI6RfU+h8bu22JCGRB2/69kG1iazx58DazM/vIjjBtmiCi0CplCjecbZ8nYc5Ca+snJJsLEqYTph0C4Ujh4XvmEaqzont41gkL96naodXKrGF6YSfQtUi0OXXDVlqPfJNP6usotUhYbJIUMmQb/GGrAxpRljVycDBuc1hKM2LclX8/7H9nFfB+82Cd45T2+mcspcSRmu4F);strokeColor=#ffffff;points=[];labelBackgroundColor=none;rounded=0;html=1;whiteSpace=wrap;" parent="1" vertex="1">
            <mxGeometry x="1137" y="322" width="127" height="76" as="geometry" />
          </mxCell>
        </UserObject>
        <mxCell id="99" style="vsdxID=80;fillColor=#5b9bd5;gradientColor=none;shape=stencil(UzV2Ls5ILEhVNTIoLinKz04tz0wpyVA1dlE1MsrMy0gtyiwBslSNXVWNndPyi1LTi/JL81Ig/IJEkEoQKze/DGRCBUSfqQFIi5FBJQrXDaI0JzMPSamFuZ6FBYpqXUMDMz0zc2QtQAbCKogrkeXQnQUUgnjJ2BUA);strokeColor=#5b9bd5;points=[];labelBackgroundColor=none;rounded=0;html=1;whiteSpace=wrap;" parent="98" vertex="1">
          <mxGeometry width="127" height="76" as="geometry" />
        </mxCell>
        <mxCell id="100" value="&lt;div style=&quot;font-size: 1px&quot;&gt;&lt;font style=&quot;font-size:14.11px;font-family:Calibri;color:#ffffff;direction:ltr;letter-spacing:0px;line-height:120%;opacity:1&quot;&gt;GameId&lt;br/&gt;&lt;/font&gt;&lt;/div&gt;" style="text;vsdxID=79;fillColor=none;gradientColor=none;strokeColor=none;points=[];labelBackgroundColor=none;rounded=0;html=1;whiteSpace=wrap;verticalAlign=middle;align=center;overflow=width;;html=1;" parent="98" vertex="1">
          <mxGeometry y="-0.2" width="127" height="76.2" as="geometry" />
        </mxCell>
        <UserObject label="&lt;div style=&quot;font-size: 1px&quot;&gt;&lt;font style=&quot;font-size:14.11px;font-family:Calibri;color:#ffffff;direction:ltr;letter-spacing:0px;line-height:120%;opacity:1&quot;&gt;select&lt;br/&gt;&lt;/font&gt;&lt;/div&gt;" tags="Background" id="101">
          <mxCell style="verticalAlign=middle;align=center;overflow=width;vsdxID=81;fillColor=#a5a5a5;gradientColor=none;shape=stencil(nZBNDoUgDIRP0z3SeAKf3sNElEYEg/h3+wdpjIaFC3cz9OukDGC16HZWIMUSvBvVTl3QgD+QkqxWnkJUgDVg1TuvBu9W27Gf20QmNbktJRy8V4q0IsXJthDsG2YN2Qd7DS+4fGGz3Bfyc2Z2axT3J3syhjt6zvNS4hMXivUf);strokeColor=#ffffff;points=[];labelBackgroundColor=none;rounded=0;html=1;whiteSpace=wrap;" parent="1" vertex="1">
            <mxGeometry x="977" y="145" width="101" height="76" as="geometry" />
          </mxCell>
        </UserObject>
        <mxCell id="102" style="vsdxID=82;fillColor=none;gradientColor=none;edgeStyle=none;strokeColor=none;points=[[1,0.5,0]];labelBackgroundColor=#ffffff;rounded=0;html=1;whiteSpace=wrap;" parent="1" vertex="1">
          <mxGeometry x="863" y="174" width="118" height="25" as="geometry" />
        </mxCell>
        <mxCell id="103" value="&lt;div style=&quot;font-size: 1px&quot;&gt;&lt;font style=&quot;font-size:11.29px;font-family:Calibri;color:#2e4f6c;direction:ltr;letter-spacing:0px;line-height:120%;opacity:1&quot;&gt;n&lt;br/&gt;&lt;/font&gt;&lt;/div&gt;" style="text;vsdxID=82;fillColor=none;gradientColor=none;edgeStyle=none;strokeColor=none;points=[[1,0.5,0]];labelBackgroundColor=#ffffff;rounded=0;html=1;whiteSpace=wrap;verticalAlign=middle;align=center;overflow=width;;html=1;" parent="102" vertex="1">
          <mxGeometry x="31.19" y="-0.12" width="56.44" height="24.84" as="geometry" />
        </mxCell>
        <mxCell id="104" style="vsdxID=87;fillColor=none;gradientColor=none;edgeStyle=none;strokeColor=none;points=[[0,0.5,0],[1,0.5,0]];labelBackgroundColor=#ffffff;rounded=0;html=1;whiteSpace=wrap;" parent="1" vertex="1">
          <mxGeometry x="1079" y="171" width="114" height="25" as="geometry" />
        </mxCell>
        <mxCell id="105" value="&lt;div style=&quot;font-size: 1px&quot;&gt;&lt;font style=&quot;font-size:11.29px;font-family:Calibri;color:#2e4f6c;direction:ltr;letter-spacing:0px;line-height:120%;opacity:1&quot;&gt;1&lt;br/&gt;&lt;/font&gt;&lt;/div&gt;" style="text;vsdxID=87;fillColor=none;gradientColor=none;edgeStyle=none;strokeColor=none;points=[[0,0.5,0],[1,0.5,0]];labelBackgroundColor=#ffffff;rounded=0;html=1;whiteSpace=wrap;verticalAlign=middle;align=center;overflow=width;;html=1;" parent="104" vertex="1">
          <mxGeometry x="28.93" y="-0.12" width="56.44" height="24.84" as="geometry" />
        </mxCell>
        <UserObject label="&lt;div style=&quot;font-size: 1px&quot;&gt;&lt;font style=&quot;font-size:14.11px;font-family:Calibri;color:#ffffff;direction:ltr;letter-spacing:0px;line-height:120%;opacity:1&quot;&gt;Services&lt;br/&gt;&lt;/font&gt;&lt;/div&gt;" tags="Background" id="106">
          <mxCell style="verticalAlign=middle;align=center;overflow=width;vsdxID=92;fillColor=#4271c6;gradientColor=none;shape=stencil(nZBLDoAgDERP0z3SIyjew0SURgSD+Lu9kMZoXLhwN9O+tukAlrNpJg1SzDH4QW/URgNYgZTkjA4UkwJUgGXng+6DX1zLfmoymdXo17xh5zmRJ6Q42BWCfc2oJfdAr+Yv+AP9Cb7OJ3H/2JG1HNGz/84klThPVCc=);strokeColor=#ffffff;points=[];labelBackgroundColor=none;rounded=0;html=1;whiteSpace=wrap;" parent="1" vertex="1">
            <mxGeometry x="1587" y="165" width="152" height="101" as="geometry" />
          </mxCell>
        </UserObject>
        <UserObject label="" tags="Background" id="107">
          <mxCell style="vsdxID=93;fillColor=#5b9bd5;gradientColor=none;shape=stencil(vVHLDsIgEPwajiQI6RfU+h8bu22JCGRB2/69kG1iazx58DazM/vIjjBtmiCi0CplCjecbZ8nYc5Ca+snJJsLEqYTph0C4Ujh4XvmEaqzont41gkL96naodXKrGF6YSfQtUi0OXXDVlqPfJNP6usotUhYbJIUMmQb/GGrAxpRljVycDBuc1hKM2LclX8/7H9nFfB+82Cd45T2+mcspcSRmu4F);strokeColor=#ffffff;points=[];labelBackgroundColor=none;rounded=0;html=1;whiteSpace=wrap;" parent="1" vertex="1">
            <mxGeometry x="1517" y="33" width="127" height="76" as="geometry" />
          </mxCell>
        </UserObject>
        <mxCell id="108" style="vsdxID=94;fillColor=#5b9bd5;gradientColor=none;shape=stencil(XY/dDoMgDIWfprcEW83iNXPvYSIbRAWD+Pf2g/RiuLvT9jvtKZBaTb9oQLnG4Ed92CEaoCcgWmd0sDEpoA5IvX3Qn+A3N3C99JnMavZ73nCyr5HZgvK6lS9GJ+sKtEVRVze6epAgKh1J/C5xyHL2nyq1+CPqvg==);strokeColor=#5b9bd5;points=[];labelBackgroundColor=none;rounded=0;html=1;whiteSpace=wrap;" parent="107" vertex="1">
          <mxGeometry width="127" height="76" as="geometry" />
        </mxCell>
        <mxCell id="109" value="&lt;div style=&quot;font-size: 1px&quot;&gt;&lt;font style=&quot;font-size:14.11px;font-family:Calibri;color:#ffffff;direction:ltr;letter-spacing:0px;line-height:120%;opacity:1&quot;&gt;ServiceId&lt;br/&gt;&lt;/font&gt;&lt;/div&gt;" style="text;vsdxID=93;fillColor=none;gradientColor=none;strokeColor=none;points=[];labelBackgroundColor=none;rounded=0;html=1;whiteSpace=wrap;verticalAlign=middle;align=center;overflow=width;;html=1;" parent="107" vertex="1">
          <mxGeometry y="-0.2" width="127" height="76.2" as="geometry" />
        </mxCell>
        <UserObject label="" tags="Background" id="110">
          <mxCell style="vsdxID=95;fillColor=#5b9bd5;gradientColor=none;shape=stencil(vVHLDsIgEPwajiQI6RfU+h8bu22JCGRB2/69kG1iazx58DazM/vIjjBtmiCi0CplCjecbZ8nYc5Ca+snJJsLEqYTph0C4Ujh4XvmEaqzont41gkL96naodXKrGF6YSfQtUi0OXXDVlqPfJNP6usotUhYbJIUMmQb/GGrAxpRljVycDBuc1hKM2LclX8/7H9nFfB+82Cd45T2+mcspcSRmu4F);strokeColor=#ffffff;points=[];labelBackgroundColor=none;rounded=0;html=1;whiteSpace=wrap;" parent="1" vertex="1">
            <mxGeometry x="1750" y="56" width="127" height="76" as="geometry" />
          </mxCell>
        </UserObject>
        <mxCell id="111" style="vsdxID=96;fillColor=#5b9bd5;gradientColor=none;shape=stencil(XY9LDoMwDERP42VRsEHKnsI9kEhJ1DZBIfxu31heAN3N2G/8AWpm208GUM0phrfZ3JAs0BMQnbcmupQVUAvUvEI0YwyLH8RPPZOsvmHlCbvkasURVMfNdoJ+nL+gj1IXWt/wssKC/RnJ4lwlV157/2flkrxE7Q8=);strokeColor=#5b9bd5;points=[];labelBackgroundColor=none;rounded=0;html=1;whiteSpace=wrap;" parent="110" vertex="1">
          <mxGeometry width="127" height="76" as="geometry" />
        </mxCell>
        <mxCell id="112" value="&lt;div style=&quot;font-size: 1px&quot;&gt;&lt;font style=&quot;font-size:14.11px;font-family:Calibri;color:#ffffff;direction:ltr;letter-spacing:0px;line-height:120%;opacity:1&quot;&gt;Price&lt;br/&gt;&lt;/font&gt;&lt;/div&gt;" style="text;vsdxID=95;fillColor=none;gradientColor=none;strokeColor=none;points=[];labelBackgroundColor=none;rounded=0;html=1;whiteSpace=wrap;verticalAlign=middle;align=center;overflow=width;;html=1;" parent="110" vertex="1">
          <mxGeometry y="-0.2" width="127" height="76.2" as="geometry" />
        </mxCell>
        <mxCell id="113" style="vsdxID=97;fillColor=none;gradientColor=none;edgeStyle=none;strokeColor=none;points=[[0,0.5,0],[1,0.5,0]];labelBackgroundColor=#ffffff;rounded=0;html=1;whiteSpace=wrap;" parent="1" vertex="1">
          <mxGeometry x="1507" y="228" width="80" height="25" as="geometry" />
        </mxCell>
        <mxCell id="114" value="&lt;div style=&quot;font-size: 1px&quot;&gt;&lt;font style=&quot;font-size:11.29px;font-family:Calibri;color:#2e4f6c;direction:ltr;letter-spacing:0px;line-height:120%;opacity:1&quot;&gt;1&lt;br/&gt;&lt;/font&gt;&lt;/div&gt;" style="text;vsdxID=97;fillColor=none;gradientColor=none;edgeStyle=none;strokeColor=none;points=[[0,0.5,0],[1,0.5,0]];labelBackgroundColor=#ffffff;rounded=0;html=1;whiteSpace=wrap;verticalAlign=middle;align=center;overflow=width;;html=1;" parent="113" vertex="1">
          <mxGeometry x="11.99" y="-0.12" width="56.44" height="24.84" as="geometry" />
        </mxCell>
        <UserObject label="" tags="Background" id="115">
          <mxCell style="vsdxID=102;fillColor=#5b9bd5;gradientColor=none;shape=stencil(vVHLDsIgEPwajiQI6RfU+h8bu22JCGRB2/69kG1iazx58DazM/vIjjBtmiCi0CplCjecbZ8nYc5Ca+snJJsLEqYTph0C4Ujh4XvmEaqzont41gkL96naodXKrGF6YSfQtUi0OXXDVlqPfJNP6usotUhYbJIUMmQb/GGrAxpRljVycDBuc1hKM2LclX8/7H9nFfB+82Cd45T2+mcspcSRmu4F);strokeColor=#ffffff;points=[];labelBackgroundColor=none;rounded=0;html=1;whiteSpace=wrap;" parent="1" vertex="1">
            <mxGeometry x="1644" y="12" width="127" height="76" as="geometry" />
          </mxCell>
        </UserObject>
        <mxCell id="116" style="vsdxID=103;fillColor=#5b9bd5;gradientColor=none;shape=stencil(XY9LDoAgDERP0z1poxfwcw8SUYgKBvB3eyFdKO5m2td2CtQELTcFKEL0blanGaIGagHRWK28iUkBdUDN6LyavNvtwH6TmcxqdUfecPFcJfIIiruwPaOLsR8U6wJFUbBJvDc43rf3z5NK/At1Dw==);strokeColor=#5b9bd5;points=[];labelBackgroundColor=none;rounded=0;html=1;whiteSpace=wrap;" parent="115" vertex="1">
          <mxGeometry width="127" height="76" as="geometry" />
        </mxCell>
        <mxCell id="117" value="&lt;div style=&quot;font-size: 1px&quot;&gt;&lt;font style=&quot;font-size:14.11px;font-family:Calibri;color:#ffffff;direction:ltr;letter-spacing:0px;line-height:120%;opacity:1&quot;&gt;Service&lt;br/&gt;&lt;/font&gt;&lt;/div&gt;" style="text;vsdxID=102;fillColor=none;gradientColor=none;strokeColor=none;points=[];labelBackgroundColor=none;rounded=0;html=1;whiteSpace=wrap;verticalAlign=middle;align=center;overflow=width;;html=1;" parent="115" vertex="1">
          <mxGeometry y="-0.2" width="127" height="76.2" as="geometry" />
        </mxCell>
        <UserObject label="&lt;div style=&quot;font-size: 1px&quot;&gt;&lt;font style=&quot;font-size:14.11px;font-family:Calibri;color:#ffffff;direction:ltr;letter-spacing:0px;line-height:120%;opacity:1&quot;&gt;has&lt;br/&gt;&lt;/font&gt;&lt;/div&gt;" tags="Background" id="118">
          <mxCell style="verticalAlign=middle;align=center;overflow=width;vsdxID=104;fillColor=#a5a5a5;gradientColor=none;shape=stencil(nZBNDoUgDIRP0z3SeAKf3sNElEYEg/h3+wdpjIaFC3cz9OukDGC16HZWIMUSvBvVTl3QgD+QkqxWnkJUgDVg1TuvBu9W27Gf20QmNbktJRy8V4q0IsXJthDsG2YN2Qd7DS+4fGGz3Bfyc2Z2axT3J3syhjt6zvNS4hMXivUf);strokeColor=#ffffff;points=[];labelBackgroundColor=none;rounded=0;html=1;whiteSpace=wrap;" parent="1" vertex="1">
            <mxGeometry x="1422" y="215" width="101" height="76" as="geometry" />
          </mxCell>
        </UserObject>
        <mxCell id="119" style="vsdxID=105;fillColor=none;gradientColor=none;edgeStyle=none;strokeColor=none;points=[[1,0.5,0]];labelBackgroundColor=#ffffff;rounded=0;html=1;whiteSpace=wrap;" parent="1" vertex="1">
          <mxGeometry x="1346" y="215" width="110" height="25" as="geometry" />
        </mxCell>
        <mxCell id="120" value="&lt;div style=&quot;font-size: 1px&quot;&gt;&lt;font style=&quot;font-size:11.29px;font-family:Calibri;color:#2e4f6c;direction:ltr;letter-spacing:0px;line-height:120%;opacity:1&quot;&gt;n&lt;br/&gt;&lt;/font&gt;&lt;/div&gt;" style="text;vsdxID=105;fillColor=none;gradientColor=none;edgeStyle=none;strokeColor=none;points=[[1,0.5,0]];labelBackgroundColor=#ffffff;rounded=0;html=1;whiteSpace=wrap;verticalAlign=middle;align=center;overflow=width;;html=1;" parent="119" vertex="1">
          <mxGeometry x="26.81" y="-0.12" width="56.44" height="24.84" as="geometry" />
        </mxCell>
        <UserObject label="&lt;div style=&quot;font-size: 1px&quot;&gt;&lt;font style=&quot;font-size:14.11px;font-family:Calibri;color:#ffffff;direction:ltr;letter-spacing:0px;line-height:120%;opacity:1&quot;&gt;Item&lt;br/&gt;&lt;/font&gt;&lt;/div&gt;" tags="Background" id="121">
          <mxCell style="verticalAlign=middle;align=center;overflow=width;vsdxID=110;fillColor=#4271c6;gradientColor=none;shape=stencil(nZBLDoAgDERP0z3SIyjew0SURgSD+Lu9kMZoXLhwN9O+tukAlrNpJg1SzDH4QW/URgNYgZTkjA4UkwJUgGXng+6DX1zLfmoymdXo17xh5zmRJ6Q42BWCfc2oJfdAr+Yv+AP9Cb7OJ3H/2JG1HNGz/84klThPVCc=);strokeColor=#ffffff;points=[];labelBackgroundColor=none;rounded=0;html=1;whiteSpace=wrap;" parent="1" vertex="1">
            <mxGeometry x="1200" y="673" width="152" height="101" as="geometry" />
          </mxCell>
        </UserObject>
        <UserObject label="" tags="Background" id="122">
          <mxCell style="vsdxID=111;fillColor=#5b9bd5;gradientColor=none;shape=stencil(vVHLDsIgEPwajiQI6RfU+h8bu22JCGRB2/69kG1iazx58DazM/vIjjBtmiCi0CplCjecbZ8nYc5Ca+snJJsLEqYTph0C4Ujh4XvmEaqzont41gkL96naodXKrGF6YSfQtUi0OXXDVlqPfJNP6usotUhYbJIUMmQb/GGrAxpRljVycDBuc1hKM2LclX8/7H9nFfB+82Cd45T2+mcspcSRmu4F);strokeColor=#ffffff;points=[];labelBackgroundColor=none;rounded=0;html=1;whiteSpace=wrap;" parent="1" vertex="1">
            <mxGeometry x="1252" y="789" width="127" height="76" as="geometry" />
          </mxCell>
        </UserObject>
        <mxCell id="123" style="vsdxID=112;fillColor=#5b9bd5;gradientColor=none;shape=stencil(UzV2Ls5ILEhVNTIoLinKz04tz0wpyVA1dlE1MsrMy0gtyiwBslSNXVWNndPyi1LTi/JL81Ig/IJEkEoQKze/DGRCBUSfqQFIi5FBJQrXDaI0JzMPSamxiZ6JEYpqXUMLPQtLZB1ABsImiCOR5dBdBRSC+MjYFQA=);strokeColor=#5b9bd5;points=[];labelBackgroundColor=none;rounded=0;html=1;whiteSpace=wrap;" parent="122" vertex="1">
          <mxGeometry width="127" height="76" as="geometry" />
        </mxCell>
        <mxCell id="124" value="&lt;div style=&quot;font-size: 1px&quot;&gt;&lt;font style=&quot;font-size:14.11px;font-family:Calibri;color:#ffffff;direction:ltr;letter-spacing:0px;line-height:120%;opacity:1&quot;&gt;ItemId&lt;br/&gt;&lt;/font&gt;&lt;/div&gt;" style="text;vsdxID=111;fillColor=none;gradientColor=none;strokeColor=none;points=[];labelBackgroundColor=none;rounded=0;html=1;whiteSpace=wrap;verticalAlign=middle;align=center;overflow=width;;html=1;" parent="122" vertex="1">
          <mxGeometry y="-0.2" width="127" height="76.2" as="geometry" />
        </mxCell>
        <UserObject label="" tags="Background" id="125">
          <mxCell style="vsdxID=113;fillColor=#5b9bd5;gradientColor=none;shape=stencil(vVHLDsIgEPwajiQI6RfU+h8bu22JCGRB2/69kG1iazx58DazM/vIjjBtmiCi0CplCjecbZ8nYc5Ca+snJJsLEqYTph0C4Ujh4XvmEaqzont41gkL96naodXKrGF6YSfQtUi0OXXDVlqPfJNP6usotUhYbJIUMmQb/GGrAxpRljVycDBuc1hKM2LclX8/7H9nFfB+82Cd45T2+mcspcSRmu4F);strokeColor=#ffffff;points=[];labelBackgroundColor=none;rounded=0;html=1;whiteSpace=wrap;" parent="1" vertex="1">
            <mxGeometry x="1385" y="614" width="127" height="76" as="geometry" />
          </mxCell>
        </UserObject>
        <mxCell id="126" style="vsdxID=114;fillColor=#5b9bd5;gradientColor=none;shape=stencil(XY/LDoQgDEW/pksNtmExax//YSIORAWD+Pp7IV0Mzu62Pbe9Bao33a8KUGzBu0mdZggaqAFEY7XyJkQF1ALVo/Pq691uB67XPpFJLe5IGy72SZEsKO5X2TE6G5uhBcqS6IVXoio/MrdE8TvFKfPZf6zY4peofQA=);strokeColor=#5b9bd5;points=[];labelBackgroundColor=none;rounded=0;html=1;whiteSpace=wrap;" parent="125" vertex="1">
          <mxGeometry width="127" height="76" as="geometry" />
        </mxCell>
        <mxCell id="127" value="&lt;div style=&quot;font-size: 1px&quot;&gt;&lt;font style=&quot;font-size:14.11px;font-family:Calibri;color:#ffffff;direction:ltr;letter-spacing:0px;line-height:120%;opacity:1&quot;&gt;TypeId&lt;br/&gt;&lt;/font&gt;&lt;/div&gt;" style="text;vsdxID=113;fillColor=none;gradientColor=none;strokeColor=none;points=[];labelBackgroundColor=none;rounded=0;html=1;whiteSpace=wrap;verticalAlign=middle;align=center;overflow=width;;html=1;" parent="125" vertex="1">
          <mxGeometry y="-0.2" width="127" height="76.2" as="geometry" />
        </mxCell>
        <UserObject label="" tags="Background" id="128">
          <mxCell style="vsdxID=115;fillColor=#5b9bd5;gradientColor=none;shape=stencil(vVHLDsIgEPwajiQI6RfU+h8bu22JCGRB2/69kG1iazx58DazM/vIjjBtmiCi0CplCjecbZ8nYc5Ca+snJJsLEqYTph0C4Ujh4XvmEaqzont41gkL96naodXKrGF6YSfQtUi0OXXDVlqPfJNP6usotUhYbJIUMmQb/GGrAxpRljVycDBuc1hKM2LclX8/7H9nFfB+82Cd45T2+mcspcSRmu4F);strokeColor=#ffffff;points=[];labelBackgroundColor=none;rounded=0;html=1;whiteSpace=wrap;" parent="1" vertex="1">
            <mxGeometry x="1092" y="789" width="127" height="76" as="geometry" />
          </mxCell>
        </UserObject>
        <mxCell id="129" style="vsdxID=116;fillColor=#5b9bd5;gradientColor=none;shape=stencil(UzV2Ls5ILEhVNTIoLinKz04tz0wpyVA1dlE1MsrMy0gtyiwBslSNXVWNndPyi1LTi/JL81Ig/IJEkEoQKze/DGRCBUSfqQFIi5FBJQrXDaI0JzMPSamlhZ6JKYpqXUMLPQtLZB1ABsImiCOR5dBdBRSC+MjYFQA=);strokeColor=#5b9bd5;points=[];labelBackgroundColor=none;rounded=0;html=1;whiteSpace=wrap;" parent="128" vertex="1">
          <mxGeometry width="127" height="76" as="geometry" />
        </mxCell>
        <mxCell id="130" value="&lt;div style=&quot;font-size: 1px&quot;&gt;&lt;font style=&quot;font-size:14.11px;font-family:Calibri;color:#ffffff;direction:ltr;letter-spacing:0px;line-height:120%;opacity:1&quot;&gt;Price&lt;br/&gt;&lt;/font&gt;&lt;/div&gt;" style="text;vsdxID=115;fillColor=none;gradientColor=none;strokeColor=none;points=[];labelBackgroundColor=none;rounded=0;html=1;whiteSpace=wrap;verticalAlign=middle;align=center;overflow=width;;html=1;" parent="128" vertex="1">
          <mxGeometry y="-0.2" width="127" height="76.2" as="geometry" />
        </mxCell>
        <UserObject label="" tags="Background" id="131">
          <mxCell style="vsdxID=117;fillColor=#5b9bd5;gradientColor=none;shape=stencil(vVHLDsIgEPwajiQI6RfU+h8bu22JCGRB2/69kG1iazx58DazM/vIjjBtmiCi0CplCjecbZ8nYc5Ca+snJJsLEqYTph0C4Ujh4XvmEaqzont41gkL96naodXKrGF6YSfQtUi0OXXDVlqPfJNP6usotUhYbJIUMmQb/GGrAxpRljVycDBuc1hKM2LclX8/7H9nFfB+82Cd45T2+mcspcSRmu4F);strokeColor=#ffffff;points=[];labelBackgroundColor=none;rounded=0;html=1;whiteSpace=wrap;" parent="1" vertex="1">
            <mxGeometry x="1385" y="749" width="127" height="76" as="geometry" />
          </mxCell>
        </UserObject>
        <mxCell id="132" style="vsdxID=118;fillColor=#5b9bd5;gradientColor=none;shape=stencil(XY9LEoQgDERPk6UWJnICP/ewSkYoFSzE3+0HKovB2XWS10kHqNn1sClAsQfvZnWZMWigFhCN1cqbEBVQB9R8nFeTd4cdud6GRCa1ujNtuNknRbKgeF5lz+hibIYWKEuiF17VZUW5I4rfJQ6Zz/5TxRZ/RN0X);strokeColor=#5b9bd5;points=[];labelBackgroundColor=none;rounded=0;html=1;whiteSpace=wrap;" parent="131" vertex="1">
          <mxGeometry width="127" height="76" as="geometry" />
        </mxCell>
        <mxCell id="133" value="&lt;div style=&quot;font-size: 1px&quot;&gt;&lt;font style=&quot;font-size:14.11px;font-family:Calibri;color:#ffffff;direction:ltr;letter-spacing:0px;line-height:120%;opacity:1&quot;&gt;Item&lt;br/&gt;&lt;/font&gt;&lt;/div&gt;" style="text;vsdxID=117;fillColor=none;gradientColor=none;strokeColor=none;points=[];labelBackgroundColor=none;rounded=0;html=1;whiteSpace=wrap;verticalAlign=middle;align=center;overflow=width;;html=1;" parent="131" vertex="1">
          <mxGeometry y="-0.2" width="127" height="76.2" as="geometry" />
        </mxCell>
        <UserObject label="" tags="Background" id="135">
          <mxCell style="vsdxID=120;fillColor=#5b9bd5;gradientColor=none;shape=stencil(vVHLDsIgEPwajiQI6RfU+h8bu22JCGRB2/69kG1iazx58DazM/vIjjBtmiCi0CplCjecbZ8nYc5Ca+snJJsLEqYTph0C4Ujh4XvmEaqzont41gkL96naodXKrGF6YSfQtUi0OXXDVlqPfJNP6usotUhYbJIUMmQb/GGrAxpRljVycDBuc1hKM2LclX8/7H9nFfB+82Cd45T2+mcspcSRmu4F);strokeColor=#ffffff;points=[];labelBackgroundColor=none;rounded=0;html=1;whiteSpace=wrap;" parent="1" vertex="1">
            <mxGeometry x="1803" y="391" width="127" height="76" as="geometry" />
          </mxCell>
        </UserObject>
        <mxCell id="136" style="vsdxID=121;fillColor=#5b9bd5;gradientColor=none;shape=stencil(XY9LDoMwDERP4y0KdqnUNaX3QEogUSFBIeVze2J5AXQ3Y7/xB6iebTsZQDWnGL5mdTpZoDcgOm9NdCkroAao7kI0fQw/r8VPLZOsxrDwhE1yleIIqv1mP4IOzl9QfBSv8kaXTyzYn4kszk1y5LX3f1UuyUfUHA==);strokeColor=#5b9bd5;points=[];labelBackgroundColor=none;rounded=0;html=1;whiteSpace=wrap;" parent="135" vertex="1">
          <mxGeometry width="127" height="76" as="geometry" />
        </mxCell>
        <mxCell id="137" value="&lt;div style=&quot;font-size: 1px&quot;&gt;&lt;font style=&quot;font-size:14.11px;font-family:Calibri;color:#ffffff;direction:ltr;letter-spacing:0px;line-height:120%;opacity:1&quot;&gt;Type&lt;br/&gt;&lt;/font&gt;&lt;/div&gt;" style="text;vsdxID=120;fillColor=none;gradientColor=none;strokeColor=none;points=[];labelBackgroundColor=none;rounded=0;html=1;whiteSpace=wrap;verticalAlign=middle;align=center;overflow=width;;html=1;" parent="135" vertex="1">
          <mxGeometry y="-0.2" width="127" height="76.2" as="geometry" />
        </mxCell>
        <UserObject label="" tags="Background" id="138">
          <mxCell style="vsdxID=122;fillColor=#5b9bd5;gradientColor=none;shape=stencil(vVHLDsIgEPwajiQI6RfU+h8bu22JCGRB2/69kG1iazx58DazM/vIjjBtmiCi0CplCjecbZ8nYc5Ca+snJJsLEqYTph0C4Ujh4XvmEaqzont41gkL96naodXKrGF6YSfQtUi0OXXDVlqPfJNP6usotUhYbJIUMmQb/GGrAxpRljVycDBuc1hKM2LclX8/7H9nFfB+82Cd45T2+mcspcSRmu4F);strokeColor=#ffffff;points=[];labelBackgroundColor=none;rounded=0;html=1;whiteSpace=wrap;" parent="1" vertex="1">
            <mxGeometry x="1663" y="391" width="127" height="76" as="geometry" />
          </mxCell>
        </UserObject>
        <mxCell id="139" style="vsdxID=123;fillColor=#5b9bd5;gradientColor=none;shape=stencil(XY9JDoQwDARf4ysKthiJM8s/kMiQaIYEhbD9nlg+sNy67WovQNVsukkDqjkG/9Ob7aMBqgHROqODjUkBNUDV1wc9BL+4XvzUMclq9CtP2CVXKI6gOh62FfRv3Q0tKSvzB51/MGN/JZK4NsmR9977qlSSj6g5AQ==);strokeColor=#5b9bd5;points=[];labelBackgroundColor=none;rounded=0;html=1;whiteSpace=wrap;" parent="138" vertex="1">
          <mxGeometry width="127" height="76" as="geometry" />
        </mxCell>
        <mxCell id="140" value="&lt;div style=&quot;font-size: 1px&quot;&gt;&lt;font style=&quot;font-size:14.11px;font-family:Calibri;color:#ffffff;direction:ltr;letter-spacing:0px;line-height:120%;opacity:1&quot;&gt;TypeId&lt;br/&gt;&lt;/font&gt;&lt;/div&gt;" style="text;vsdxID=122;fillColor=none;gradientColor=none;strokeColor=none;points=[];labelBackgroundColor=none;rounded=0;html=1;whiteSpace=wrap;verticalAlign=middle;align=center;overflow=width;;html=1;" parent="138" vertex="1">
          <mxGeometry y="-0.2" width="127" height="76.2" as="geometry" />
        </mxCell>
        <UserObject label="&lt;div style=&quot;font-size: 1px&quot;&gt;&lt;font style=&quot;font-size:14.11px;font-family:Calibri;color:#ffffff;direction:ltr;letter-spacing:0px;line-height:120%;opacity:1&quot;&gt;has&lt;br/&gt;&lt;/font&gt;&lt;/div&gt;" tags="Background" id="141">
          <mxCell style="verticalAlign=middle;align=center;overflow=width;vsdxID=124;fillColor=#a5a5a5;gradientColor=none;shape=stencil(nZBNDoUgDIRP0z3SeAKf3sNElEYEg/h3+wdpjIaFC3cz9OukDGC16HZWIMUSvBvVTl3QgD+QkqxWnkJUgDVg1TuvBu9W27Gf20QmNbktJRy8V4q0IsXJthDsG2YN2Qd7DS+4fGGz3Bfyc2Z2axT3J3syhjt6zvNS4hMXivUf);strokeColor=#ffffff;points=[];labelBackgroundColor=none;rounded=0;html=1;whiteSpace=wrap;" parent="1" vertex="1">
            <mxGeometry x="1607" y="679" width="101" height="76" as="geometry" />
          </mxCell>
        </UserObject>
        <mxCell id="148" value="1" style="vsdxID=130;fillColor=none;gradientColor=none;edgeStyle=none;strokeColor=none;points=[[0,1,0],[-2.45,7.75,0]];labelBackgroundColor=#ffffff;rounded=0;html=1;whiteSpace=wrap;;flipV=1;;flipH=1;" parent="1" vertex="1">
          <mxGeometry x="1695" y="615" width="44" height="92" as="geometry" />
        </mxCell>
        <mxCell id="153" value="&lt;div style=&quot;font-size: 1px&quot;&gt;&lt;font style=&quot;font-size:11.29px;font-family:Calibri;color:#2e4f6c;direction:ltr;letter-spacing:0px;line-height:120%;opacity:1&quot;&gt;1&lt;br/&gt;&lt;/font&gt;&lt;/div&gt;" style="text;vsdxID=130;fillColor=none;gradientColor=none;edgeStyle=none;strokeColor=none;points=[[0,1,0],[-2.45,7.75,0]];labelBackgroundColor=#ffffff;rounded=0;html=1;whiteSpace=wrap;verticalAlign=middle;align=center;overflow=width;;html=1;" parent="148" vertex="1">
          <mxGeometry x="-50.19" y="-58.66" width="56.44" height="24.84" as="geometry" />
        </mxCell>
        <UserObject label="&lt;div style=&quot;font-size: 1px&quot;&gt;&lt;font style=&quot;font-size:14.11px;font-family:Calibri;color:#ffffff;direction:ltr;letter-spacing:0px;line-height:120%;opacity:1&quot;&gt;has&lt;br/&gt;&lt;/font&gt;&lt;/div&gt;" tags="Background" id="154">
          <mxCell style="verticalAlign=middle;align=center;overflow=width;vsdxID=135;fillColor=#a5a5a5;gradientColor=none;shape=stencil(nZBNDoUgDIRP0z3SeAKf3sNElEYEg/h3+wdpjIaFC3cz9OukDGC16HZWIMUSvBvVTl3QgD+QkqxWnkJUgDVg1TuvBu9W27Gf20QmNbktJRy8V4q0IsXJthDsG2YN2Qd7DS+4fGGz3Bfyc2Z2axT3J3syhjt6zvNS4hMXivUf);strokeColor=#ffffff;points=[];labelBackgroundColor=none;rounded=0;html=1;whiteSpace=wrap;" parent="1" vertex="1">
            <mxGeometry x="1225" y="495" width="101" height="76" as="geometry" />
          </mxCell>
        </UserObject>
        <mxCell id="155" value="n" style="vsdxID=136;fillColor=none;gradientColor=none;edgeStyle=none;strokeColor=none;points=[[0.5,1,0],[0.5,19.74,0]];labelBackgroundColor=#ffffff;rounded=0;html=1;whiteSpace=wrap;;flipV=1;" parent="1" vertex="1">
          <mxGeometry x="1264" y="241" width="25" height="254" as="geometry" />
        </mxCell>
        <mxCell id="160" value="&lt;div style=&quot;font-size: 1px&quot;&gt;&lt;font style=&quot;font-size:11.29px;font-family:Calibri;color:#2e4f6c;direction:ltr;letter-spacing:0px;line-height:120%;opacity:1&quot;&gt;n&lt;br/&gt;&lt;/font&gt;&lt;/div&gt;" style="text;vsdxID=136;fillColor=none;gradientColor=none;edgeStyle=none;strokeColor=none;points=[[0.5,1,0],[0.5,19.74,0]];labelBackgroundColor=#ffffff;rounded=0;html=1;whiteSpace=wrap;verticalAlign=middle;align=center;overflow=width;;html=1;" parent="155" vertex="1">
          <mxGeometry x="-15.52" y="-139.42" width="56.44" height="24.84" as="geometry" />
        </mxCell>
        <mxCell id="161" value="n" style="vsdxID=141;fillColor=none;gradientColor=none;edgeStyle=none;strokeColor=none;points=[[0.5,1,0],[0.5,9.82,0]];labelBackgroundColor=#ffffff;rounded=0;html=1;whiteSpace=wrap;;flipV=1;" parent="1" vertex="1">
          <mxGeometry x="1287" y="553" width="40.91999999999999" height="120" as="geometry" />
        </mxCell>
        <mxCell id="166" value="&lt;div style=&quot;font-size: 1px&quot;&gt;&lt;font style=&quot;font-size:11.29px;font-family:Calibri;color:#2e4f6c;direction:ltr;letter-spacing:0px;line-height:120%;opacity:1&quot;&gt;1&lt;br/&gt;&lt;/font&gt;&lt;/div&gt;" style="text;vsdxID=141;fillColor=none;gradientColor=none;edgeStyle=none;strokeColor=none;points=[[0.5,1,0],[0.5,9.82,0]];labelBackgroundColor=#ffffff;rounded=0;html=1;whiteSpace=wrap;verticalAlign=middle;align=center;overflow=width;;html=1;" parent="161" vertex="1">
          <mxGeometry x="-15.52" y="-72.69" width="56.44" height="24.84" as="geometry" />
        </mxCell>
        <mxCell id="147" value="&lt;div style=&quot;font-size: 1px&quot;&gt;&lt;font style=&quot;font-size:11.29px;font-family:Calibri;color:#2e4f6c;direction:ltr;letter-spacing:0px;line-height:120%;opacity:1&quot;&gt;n&lt;br/&gt;&lt;/font&gt;&lt;/div&gt;" style="text;vsdxID=125;fillColor=none;gradientColor=none;edgeStyle=none;strokeColor=none;points=[[0,0.5,0],[-14.21,0.5,0]];labelBackgroundColor=#ffffff;rounded=0;html=1;whiteSpace=wrap;verticalAlign=middle;align=center;overflow=width;;html=1;" parent="161" vertex="1">
          <mxGeometry x="-15.52000000000001" y="47.58" width="56.44" height="24.84" as="geometry" />
        </mxCell>
        <UserObject label="&lt;div style=&quot;font-size: 1px&quot;&gt;&lt;font style=&quot;font-size:14.11px;font-family:Calibri;color:#ffffff;direction:ltr;letter-spacing:0px;line-height:120%;opacity:1&quot;&gt;Game&lt;br/&gt;&lt;/font&gt;&lt;/div&gt;" tags="Background" id="167">
          <mxCell style="verticalAlign=middle;align=center;overflow=width;vsdxID=146;fillColor=#4271c6;gradientColor=none;shape=stencil(nZBLDoAgDERP0z3SIyjew0SURgSD+Lu9kMZoXLhwN9O+tukAlrNpJg1SzDH4QW/URgNYgZTkjA4UkwJUgGXng+6DX1zLfmoymdXo17xh5zmRJ6Q42BWCfc2oJfdAr+Yv+AP9Cb7OJ3H/2JG1HNGz/84klThPVCc=);strokeColor=#ffffff;points=[];labelBackgroundColor=none;rounded=0;html=1;whiteSpace=wrap;" parent="1" vertex="1">
            <mxGeometry x="698" y="584" width="152" height="101" as="geometry" />
          </mxCell>
        </UserObject>
        <UserObject label="" tags="Background" id="168">
          <mxCell style="vsdxID=147;fillColor=#5b9bd5;gradientColor=none;shape=stencil(vVHLDsIgEPwajiQI6RfU+h8bu22JCGRB2/69kG1iazx58DazM/vIjjBtmiCi0CplCjecbZ8nYc5Ca+snJJsLEqYTph0C4Ujh4XvmEaqzont41gkL96naodXKrGF6YSfQtUi0OXXDVlqPfJNP6usotUhYbJIUMmQb/GGrAxpRljVycDBuc1hKM2LclX8/7H9nFfB+82Cd45T2+mcspcSRmu4F);strokeColor=#ffffff;points=[];labelBackgroundColor=none;rounded=0;html=1;whiteSpace=wrap;" parent="1" vertex="1">
            <mxGeometry x="711" y="469" width="127" height="76" as="geometry" />
          </mxCell>
        </UserObject>
        <mxCell id="169" style="vsdxID=148;fillColor=#5b9bd5;gradientColor=none;shape=stencil(UzV2Ls5ILEhVNTIoLinKz04tz0wpyVA1dlE1MsrMy0gtyiwBslSNXVWNndPyi1LTi/JL81Ig/IJEkEoQKze/DGRCBUSfqQFIi5FBJQrXDaI0JzMPt1JDVLVABsIOiPOQ5dDdAxSC+MXYFQA=);strokeColor=#5b9bd5;points=[];labelBackgroundColor=none;rounded=0;html=1;whiteSpace=wrap;" parent="168" vertex="1">
          <mxGeometry width="127" height="76" as="geometry" />
        </mxCell>
        <mxCell id="170" value="&lt;div style=&quot;font-size: 1px&quot;&gt;&lt;font style=&quot;font-size:14.11px;font-family:Calibri;color:#ffffff;direction:ltr;letter-spacing:0px;line-height:120%;opacity:1&quot;&gt;GameId&lt;br/&gt;&lt;/font&gt;&lt;/div&gt;" style="text;vsdxID=147;fillColor=none;gradientColor=none;strokeColor=none;points=[];labelBackgroundColor=none;rounded=0;html=1;whiteSpace=wrap;verticalAlign=middle;align=center;overflow=width;;html=1;" parent="168" vertex="1">
          <mxGeometry y="-0.2" width="127" height="76.2" as="geometry" />
        </mxCell>
        <UserObject label="" tags="Background" id="171">
          <mxCell style="vsdxID=149;fillColor=#5b9bd5;gradientColor=none;shape=stencil(vVHLDsIgEPwajiQI6RfU+h8bu22JCGRB2/69kG1iazx58DazM/vIjjBtmiCi0CplCjecbZ8nYc5Ca+snJJsLEqYTph0C4Ujh4XvmEaqzont41gkL96naodXKrGF6YSfQtUi0OXXDVlqPfJNP6usotUhYbJIUMmQb/GGrAxpRljVycDBuc1hKM2LclX8/7H9nFfB+82Cd45T2+mcspcSRmu4F);strokeColor=#ffffff;points=[];labelBackgroundColor=none;rounded=0;html=1;whiteSpace=wrap;" parent="1" vertex="1">
            <mxGeometry x="533" y="698" width="127" height="76" as="geometry" />
          </mxCell>
        </UserObject>
        <mxCell id="172" style="vsdxID=150;fillColor=#5b9bd5;gradientColor=none;shape=stencil(UzV2Ls5ILEhVNTIoLinKz04tz0wpyVA1dlE1MsrMy0gtyiwBslSNXVWNndPyi1LTi/JL81Ig/IJEkEoQKze/DGRCBUSfqQFIi5FBJQrXDaI0JzMPSamhMapaXSMzPUNLZPVABsIeiBOR5dDdBBSC+MfYFQA=);strokeColor=#5b9bd5;points=[];labelBackgroundColor=none;rounded=0;html=1;whiteSpace=wrap;" parent="171" vertex="1">
          <mxGeometry width="127" height="76" as="geometry" />
        </mxCell>
        <mxCell id="173" value="&lt;div style=&quot;font-size: 1px&quot;&gt;&lt;font style=&quot;font-size:14.11px;font-family:Calibri;color:#ffffff;direction:ltr;letter-spacing:0px;line-height:120%;opacity:1&quot;&gt;Game&lt;br/&gt;&lt;/font&gt;&lt;/div&gt;" style="text;vsdxID=149;fillColor=none;gradientColor=none;strokeColor=none;points=[];labelBackgroundColor=none;rounded=0;html=1;whiteSpace=wrap;verticalAlign=middle;align=center;overflow=width;;html=1;" parent="171" vertex="1">
          <mxGeometry y="-0.2" width="127" height="76.2" as="geometry" />
        </mxCell>
        <UserObject label="" tags="Background" id="174">
          <mxCell style="vsdxID=151;fillColor=#5b9bd5;gradientColor=none;shape=stencil(vVHLDsIgEPwajiQI6RfU+h8bu22JCGRB2/69kG1iazx58DazM/vIjjBtmiCi0CplCjecbZ8nYc5Ca+snJJsLEqYTph0C4Ujh4XvmEaqzont41gkL96naodXKrGF6YSfQtUi0OXXDVlqPfJNP6usotUhYbJIUMmQb/GGrAxpRljVycDBuc1hKM2LclX8/7H9nFfB+82Cd45T2+mcspcSRmu4F);strokeColor=#ffffff;points=[];labelBackgroundColor=none;rounded=0;html=1;whiteSpace=wrap;" parent="1" vertex="1">
            <mxGeometry x="558" y="495" width="127" height="76" as="geometry" />
          </mxCell>
        </UserObject>
        <mxCell id="175" style="vsdxID=152;fillColor=#5b9bd5;gradientColor=none;shape=stencil(XY9LDoAgDERP060BGvUAfu5hIgpRwSD+bi+kC9HdTPvaTgGrTXWrBME27+wkT917BViDENoo6bQPCrABrAbr5OjsbnryaxfJqBZ7xA0XzeUsjgh2f2xL6KxNgnL+ZTkvsqJM+SDeOxQx7f0zhRL9g80D);strokeColor=#5b9bd5;points=[];labelBackgroundColor=none;rounded=0;html=1;whiteSpace=wrap;" parent="174" vertex="1">
          <mxGeometry width="127" height="76" as="geometry" />
        </mxCell>
        <mxCell id="176" value="&lt;div style=&quot;font-size: 1px&quot;&gt;&lt;font style=&quot;font-size:14.11px;font-family:Calibri;color:#ffffff;direction:ltr;letter-spacing:0px;line-height:120%;opacity:1&quot;&gt;Price&lt;br/&gt;&lt;/font&gt;&lt;/div&gt;" style="text;vsdxID=151;fillColor=none;gradientColor=none;strokeColor=none;points=[];labelBackgroundColor=none;rounded=0;html=1;whiteSpace=wrap;verticalAlign=middle;align=center;overflow=width;;html=1;" parent="174" vertex="1">
          <mxGeometry y="-0.2" width="127" height="76.2" as="geometry" />
        </mxCell>
        <UserObject label="" tags="Background" id="177">
          <mxCell style="vsdxID=153;fillColor=#5b9bd5;gradientColor=none;shape=stencil(vVHLDsIgEPwajiQI6RfU+h8bu22JCGRB2/69kG1iazx58DazM/vIjjBtmiCi0CplCjecbZ8nYc5Ca+snJJsLEqYTph0C4Ujh4XvmEaqzont41gkL96naodXKrGF6YSfQtUi0OXXDVlqPfJNP6usotUhYbJIUMmQb/GGrAxpRljVycDBuc1hKM2LclX8/7H9nFfB+82Cd45T2+mcspcSRmu4F);strokeColor=#ffffff;points=[];labelBackgroundColor=none;rounded=0;html=1;whiteSpace=wrap;" parent="1" vertex="1">
            <mxGeometry x="533" y="596" width="127" height="76" as="geometry" />
          </mxCell>
        </UserObject>
        <mxCell id="178" style="vsdxID=154;fillColor=#5b9bd5;gradientColor=none;shape=stencil(UzV2Ls5ILEhVNTIoLinKz04tz0wpyVA1dlE1MsrMy0gtyiwBslSNXVWNndPyi1LTi/JL81Ig/IJEkEoQKze/DGRCBUSfqQFIi5FBJQrXDaI0JzMPSamhMT61QAbCDojzkOXQ3QMUgvjF2BUA);strokeColor=#5b9bd5;points=[];labelBackgroundColor=none;rounded=0;html=1;whiteSpace=wrap;" parent="177" vertex="1">
          <mxGeometry width="127" height="76" as="geometry" />
        </mxCell>
        <mxCell id="179" value="&lt;div style=&quot;font-size: 1px&quot;&gt;&lt;font style=&quot;font-size:14.11px;font-family:Calibri;color:#ffffff;direction:ltr;letter-spacing:0px;line-height:120%;opacity:1&quot;&gt;Released&lt;br/&gt;&lt;/font&gt;&lt;/div&gt;" style="text;vsdxID=153;fillColor=none;gradientColor=none;strokeColor=none;points=[];labelBackgroundColor=none;rounded=0;html=1;whiteSpace=wrap;verticalAlign=middle;align=center;overflow=width;;html=1;" parent="177" vertex="1">
          <mxGeometry y="-0.2" width="127" height="76.2" as="geometry" />
        </mxCell>
        <UserObject label="" tags="Background" id="180">
          <mxCell style="vsdxID=155;fillColor=#5b9bd5;gradientColor=none;shape=stencil(vVHLDsIgEPwajiQI6RfU+h8bu22JCGRB2/69kG1iazx58DazM/vIjjBtmiCi0CplCjecbZ8nYc5Ca+snJJsLEqYTph0C4Ujh4XvmEaqzont41gkL96naodXKrGF6YSfQtUi0OXXDVlqPfJNP6usotUhYbJIUMmQb/GGrAxpRljVycDBuc1hKM2LclX8/7H9nFfB+82Cd45T2+mcspcSRmu4F);strokeColor=#ffffff;points=[];labelBackgroundColor=none;rounded=0;html=1;whiteSpace=wrap;" parent="1" vertex="1">
            <mxGeometry x="901" y="596" width="127" height="76" as="geometry" />
          </mxCell>
        </UserObject>
        <mxCell id="181" style="vsdxID=156;fillColor=#5b9bd5;gradientColor=none;shape=stencil(UzV2Ls5ILEhVNTIoLinKz04tz0wpyVA1dlE1MsrMy0gtyiwBslSNXVWNndPyi1LTi/JL81Ig/IJEkEoQKze/DGRCBUSfqQFIi5FBJQrXDaI0JzMPSamuCT61QAbCDojzkOXQ3QMUgvjF2BUA);strokeColor=#5b9bd5;points=[];labelBackgroundColor=none;rounded=0;html=1;whiteSpace=wrap;" parent="180" vertex="1">
          <mxGeometry width="127" height="76" as="geometry" />
        </mxCell>
        <mxCell id="182" value="&lt;div style=&quot;font-size: 1px&quot;&gt;&lt;font style=&quot;font-size:14.11px;font-family:Calibri;color:#ffffff;direction:ltr;letter-spacing:0px;line-height:120%;opacity:1&quot;&gt;GenreId&lt;br/&gt;&lt;/font&gt;&lt;/div&gt;" style="text;vsdxID=155;fillColor=none;gradientColor=none;strokeColor=none;points=[];labelBackgroundColor=none;rounded=0;html=1;whiteSpace=wrap;verticalAlign=middle;align=center;overflow=width;;html=1;" parent="180" vertex="1">
          <mxGeometry y="-0.2" width="127" height="76.2" as="geometry" />
        </mxCell>
        <UserObject label="" tags="Background" id="184">
          <mxCell style="vsdxID=158;fillColor=#5b9bd5;gradientColor=none;shape=stencil(vVHLDsIgEPwajiQI6RfU+h8bu22JCGRB2/69kG1iazx58DazM/vIjjBtmiCi0CplCjecbZ8nYc5Ca+snJJsLEqYTph0C4Ujh4XvmEaqzont41gkL96naodXKrGF6YSfQtUi0OXXDVlqPfJNP6usotUhYbJIUMmQb/GGrAxpRljVycDBuc1hKM2LclX8/7H9nFfB+82Cd45T2+mcspcSRmu4F);strokeColor=#ffffff;points=[];labelBackgroundColor=none;rounded=0;html=1;whiteSpace=wrap;" parent="1" vertex="1">
            <mxGeometry x="600" y="977" width="127" height="76" as="geometry" />
          </mxCell>
        </UserObject>
        <mxCell id="185" style="vsdxID=159;fillColor=#5b9bd5;gradientColor=none;shape=stencil(XY9LDsMgDERP42UjYMQJ0vQekUIDagsRIb/bF+RFSHZj+409JrSz7SdDSswpho/Z3JAs4UlKOW9NdCkrQkdo3yGaMYbFD1xPfSGL+oW1bNjZp0WxKHFcyhejX+crVEo0wAV/yAa6dmRxXuKQ9eyeKrf4I3R/);strokeColor=#5b9bd5;points=[];labelBackgroundColor=none;rounded=0;html=1;whiteSpace=wrap;" parent="184" vertex="1">
          <mxGeometry width="127" height="76" as="geometry" />
        </mxCell>
        <mxCell id="186" value="&lt;div style=&quot;font-size: 1px&quot;&gt;&lt;font style=&quot;font-size:14.11px;font-family:Calibri;color:#ffffff;direction:ltr;letter-spacing:0px;line-height:120%;opacity:1&quot;&gt;Genre&lt;br/&gt;&lt;/font&gt;&lt;/div&gt;" style="text;vsdxID=158;fillColor=none;gradientColor=none;strokeColor=none;points=[];labelBackgroundColor=none;rounded=0;html=1;whiteSpace=wrap;verticalAlign=middle;align=center;overflow=width;;html=1;" parent="184" vertex="1">
          <mxGeometry y="-0.2" width="127" height="76.2" as="geometry" />
        </mxCell>
        <UserObject label="" tags="Background" id="187">
          <mxCell style="vsdxID=160;fillColor=#5b9bd5;gradientColor=none;shape=stencil(vVHLDsIgEPwajiQI6RfU+h8bu22JCGRB2/69kG1iazx58DazM/vIjjBtmiCi0CplCjecbZ8nYc5Ca+snJJsLEqYTph0C4Ujh4XvmEaqzont41gkL96naodXKrGF6YSfQtUi0OXXDVlqPfJNP6usotUhYbJIUMmQb/GGrAxpRljVycDBuc1hKM2LclX8/7H9nFfB+82Cd45T2+mcspcSRmu4F);strokeColor=#ffffff;points=[];labelBackgroundColor=none;rounded=0;html=1;whiteSpace=wrap;" parent="1" vertex="1">
            <mxGeometry x="901" y="977" width="127" height="76" as="geometry" />
          </mxCell>
        </UserObject>
        <mxCell id="188" style="vsdxID=161;fillColor=#5b9bd5;gradientColor=none;shape=stencil(UzV2Ls5ILEhVNTIoLinKz04tz0wpyVA1dlE1MsrMy0gtyiwBslSNXVWNndPyi1LTi/JL81Ig/IJEkEoQKze/DGRCBUSfqQFIi5FBJQrXDaI0JzMPSamuCYpSIz0zY2TFQAbCEoj7kOXQHQQUgnjG2BUA);strokeColor=#5b9bd5;points=[];labelBackgroundColor=none;rounded=0;html=1;whiteSpace=wrap;" parent="187" vertex="1">
          <mxGeometry width="127" height="76" as="geometry" />
        </mxCell>
        <mxCell id="189" value="&lt;div style=&quot;font-size: 1px&quot;&gt;&lt;font style=&quot;font-size:14.11px;font-family:Calibri;color:#ffffff;direction:ltr;letter-spacing:0px;line-height:120%;opacity:1&quot;&gt;GenreId&lt;br/&gt;&lt;/font&gt;&lt;/div&gt;" style="text;vsdxID=160;fillColor=none;gradientColor=none;strokeColor=none;points=[];labelBackgroundColor=none;rounded=0;html=1;whiteSpace=wrap;verticalAlign=middle;align=center;overflow=width;;html=1;" parent="187" vertex="1">
          <mxGeometry y="-0.2" width="127" height="76.2" as="geometry" />
        </mxCell>
        <UserObject label="&lt;div style=&quot;font-size: 1px&quot;&gt;&lt;font style=&quot;font-size:14.11px;font-family:Calibri;color:#ffffff;direction:ltr;letter-spacing:0px;line-height:120%;opacity:1&quot;&gt;has&lt;br/&gt;&lt;/font&gt;&lt;/div&gt;" tags="Background" id="190">
          <mxCell style="verticalAlign=middle;align=center;overflow=width;vsdxID=162;fillColor=#a5a5a5;gradientColor=none;shape=stencil(nZBNDoUgDIRP0z3SeAKf3sNElEYEg/h3+wdpjIaFC3cz9OukDGC16HZWIMUSvBvVTl3QgD+QkqxWnkJUgDVg1TuvBu9W27Gf20QmNbktJRy8V4q0IsXJthDsG2YN2Qd7DS+4fGGz3Bfyc2Z2axT3J3syhjt6zvNS4hMXivUf);strokeColor=#ffffff;points=[];labelBackgroundColor=none;rounded=0;html=1;whiteSpace=wrap;" parent="1" vertex="1">
            <mxGeometry x="744" y="749" width="101" height="76" as="geometry" />
          </mxCell>
        </UserObject>
        <mxCell id="191" value="n" style="vsdxID=163;fillColor=none;gradientColor=none;edgeStyle=none;strokeColor=none;points=[[0.5,1,0],[0.5,5.69,0]];labelBackgroundColor=#ffffff;rounded=0;html=1;whiteSpace=wrap;;flipV=1;" parent="1" vertex="1">
          <mxGeometry x="782" y="685" width="25" height="64" as="geometry" />
        </mxCell>
        <mxCell id="197" value="n" style="vsdxID=168;fillColor=none;gradientColor=none;edgeStyle=none;strokeColor=none;points=[[0.5,1,0],[0.5,5.69,0]];labelBackgroundColor=#ffffff;rounded=0;html=1;whiteSpace=wrap;;flipV=1;" parent="1" vertex="1">
          <mxGeometry x="782" y="825" width="25" height="64" as="geometry" />
        </mxCell>
        <mxCell id="202" value="&lt;div style=&quot;font-size: 1px&quot;&gt;&lt;font style=&quot;font-size:11.29px;font-family:Calibri;color:#2e4f6c;direction:ltr;letter-spacing:0px;line-height:120%;opacity:1&quot;&gt;1&lt;br/&gt;&lt;/font&gt;&lt;/div&gt;" style="text;vsdxID=168;fillColor=none;gradientColor=none;edgeStyle=none;strokeColor=none;points=[[0.5,1,0],[0.5,5.69,0]];labelBackgroundColor=#ffffff;rounded=0;html=1;whiteSpace=wrap;verticalAlign=middle;align=center;overflow=width;;html=1;" parent="197" vertex="1">
          <mxGeometry x="-15.52" y="-44.67" width="56.44" height="24.84" as="geometry" />
        </mxCell>
        <UserObject label="&lt;div style=&quot;font-size: 1px&quot;&gt;&lt;font style=&quot;font-size:14.11px;font-family:Calibri;color:#ffffff;direction:ltr;letter-spacing:0px;line-height:120%;opacity:1&quot;&gt;has&lt;br/&gt;&lt;/font&gt;&lt;/div&gt;" tags="Background" id="203">
          <mxCell style="verticalAlign=middle;align=center;overflow=width;vsdxID=173;fillColor=#a5a5a5;gradientColor=none;shape=stencil(nZBNDoUgDIRP0z3SeAKf3sNElEYEg/h3+wdpjIaFC3cz9OukDGC16HZWIMUSvBvVTl3QgD+QkqxWnkJUgDVg1TuvBu9W27Gf20QmNbktJRy8V4q0IsXJthDsG2YN2Qd7DS+4fGGz3Bfyc2Z2axT3J3syhjt6zvNS4hMXivUf);strokeColor=#ffffff;points=[];labelBackgroundColor=none;rounded=0;html=1;whiteSpace=wrap;" parent="1" vertex="1">
            <mxGeometry x="927" y="391" width="101" height="76" as="geometry" />
          </mxCell>
        </UserObject>
        <mxCell id="204" value="n" style="vsdxID=174;fillColor=none;gradientColor=none;edgeStyle=none;strokeColor=none;points=[[0,1,0],[-10.49,13.6,0]];labelBackgroundColor=#ffffff;rounded=0;html=1;whiteSpace=wrap;;flipV=1;;flipH=1;" parent="1" vertex="1">
          <mxGeometry x="1004" y="241" width="189" height="171" as="geometry" />
        </mxCell>
        <mxCell id="209" value="&lt;div style=&quot;font-size: 1px&quot;&gt;&lt;font style=&quot;font-size:11.29px;font-family:Calibri;color:#2e4f6c;direction:ltr;letter-spacing:0px;line-height:120%;opacity:1&quot;&gt;n&lt;br/&gt;&lt;/font&gt;&lt;/div&gt;" style="text;vsdxID=174;fillColor=none;gradientColor=none;edgeStyle=none;strokeColor=none;points=[[0,1,0],[-10.49,13.6,0]];labelBackgroundColor=#ffffff;rounded=0;html=1;whiteSpace=wrap;verticalAlign=middle;align=center;overflow=width;;html=1;" parent="204" vertex="1">
          <mxGeometry x="-122.26" y="-98.06" width="56.44" height="24.84" as="geometry" />
        </mxCell>
        <mxCell id="210" value="n" style="vsdxID=179;fillColor=none;gradientColor=none;edgeStyle=none;strokeColor=none;points=[[0,1,0],[1,0,0]];labelBackgroundColor=#ffffff;rounded=0;html=1;whiteSpace=wrap;" parent="1" vertex="1">
          <mxGeometry x="858.63" y="450" width="92" height="142" as="geometry" />
        </mxCell>
        <mxCell id="211" value="&lt;div style=&quot;font-size: 1px&quot;&gt;&lt;font style=&quot;font-size:11.29px;font-family:Calibri;color:#2e4f6c;direction:ltr;letter-spacing:0px;line-height:120%;opacity:1&quot;&gt;n&lt;br&gt;&lt;/font&gt;&lt;/div&gt;" style="text;vsdxID=179;fillColor=none;gradientColor=none;edgeStyle=none;strokeColor=none;points=[[0,1,0],[1,0,0]];labelBackgroundColor=#ffffff;rounded=0;html=1;whiteSpace=wrap;verticalAlign=middle;align=center;overflow=width;;html=1;" parent="210" vertex="1">
          <mxGeometry x="18.22" y="58.37" width="56.44" height="24.84" as="geometry" />
        </mxCell>
        <UserObject label="&lt;div style=&quot;font-size: 1px&quot;&gt;&lt;font style=&quot;font-size:11.29px;font-family:Calibri;color:#2e4f6c;direction:ltr;letter-spacing:0px;line-height:120%;opacity:1&quot;&gt;1&lt;br/&gt;&lt;/font&gt;&lt;/div&gt;" tags="Connector" id="212">
          <mxCell style="vsdxID=179;fillColor=none;gradientColor=none;edgeStyle=none;strokeColor=#5088bb;points=[[0,1,0],[1,0,0]];labelBackgroundColor=#ffffff;rounded=0;html=1;whiteSpace=wrap;verticalAlign=middle;align=center;overflow=width;startArrow=none;endArrow=none;startSize=7;endSize=7;spacingTop=0;spacingBottom=0;spacingLeft=0;spacingRight=0;exitX=1;exitY=0;exitDx=0;exitDy=0;exitPerimeter=0;entryX=0.15841584158415842;entryY=0.6578947368421053;entryDx=0;entryDy=0;entryPerimeter=0;" parent="1" source="167" target="203" edge="1">
            <mxGeometry relative="1" as="geometry">
              <mxPoint y="-1" as="offset" />
              <Array as="points" />
            </mxGeometry>
          </mxCell>
        </UserObject>
        <UserObject label="&lt;div style=&quot;font-size: 1px&quot;&gt;&lt;font style=&quot;font-size:11.29px;font-family:Calibri;color:#2e4f6c;direction:ltr;letter-spacing:0px;line-height:120%;opacity:1&quot;&gt;n&lt;br/&gt;&lt;/font&gt;&lt;/div&gt;" tags="Connector" id="213">
          <mxCell style="vsdxID=174;fillColor=none;gradientColor=none;edgeStyle=none;strokeColor=#5088bb;points=[[0,1,0],[-10.49,13.6,0]];labelBackgroundColor=#ffffff;rounded=0;html=1;whiteSpace=wrap;verticalAlign=middle;align=center;overflow=width;startArrow=none;endArrow=none;startSize=7;endSize=7;spacingTop=0;spacingBottom=0;spacingLeft=0;spacingRight=0;exitX=0;exitY=1.00990099009901;exitDx=0;exitDy=0;exitPerimeter=0;entryX=0.7722772277227723;entryY=0.27631578947368424;entryDx=0;entryDy=0;entryPerimeter=0;" parent="1" target="203" edge="1">
            <mxGeometry relative="1" as="geometry">
              <mxPoint y="92" as="offset" />
              <Array as="points" />
              <mxPoint x="1193" y="240.99999999999977" as="sourcePoint" />
            </mxGeometry>
          </mxCell>
        </UserObject>
        <UserObject label="&lt;div style=&quot;font-size: 1px&quot;&gt;&lt;font style=&quot;font-size:11.29px;font-family:Calibri;color:#2e4f6c;direction:ltr;letter-spacing:0px;line-height:120%;opacity:1&quot;&gt;1&lt;br/&gt;&lt;/font&gt;&lt;/div&gt;" tags="Connector" id="214">
          <mxCell style="vsdxID=168;fillColor=none;gradientColor=none;edgeStyle=none;strokeColor=#5088bb;points=[[0.5,1,0],[0.5,5.69,0]];labelBackgroundColor=#ffffff;rounded=0;html=1;whiteSpace=wrap;verticalAlign=middle;align=center;overflow=width;startArrow=none;endArrow=none;startSize=7;endSize=7;spacingTop=0;spacingBottom=0;spacingLeft=0;spacingRight=0;exitX=0.504950495049505;exitY=1;exitDx=0;exitDy=0;exitPerimeter=0;entryX=0.3355263157894737;entryY=0;entryDx=0;entryDy=0;entryPerimeter=0;" parent="1" source="190" edge="1">
            <mxGeometry relative="1" as="geometry">
              <mxPoint x="12" y="38" as="offset" />
              <Array as="points" />
              <mxPoint x="795" y="889" as="targetPoint" />
            </mxGeometry>
          </mxCell>
        </UserObject>
        <UserObject label="&lt;div style=&quot;font-size: 1px&quot;&gt;&lt;font style=&quot;font-size:11.29px;font-family:Calibri;color:#2e4f6c;direction:ltr;letter-spacing:0px;line-height:120%;opacity:1&quot;&gt;n&lt;br/&gt;&lt;/font&gt;&lt;/div&gt;" tags="Connector" id="215">
          <mxCell style="vsdxID=163;fillColor=none;gradientColor=none;edgeStyle=none;strokeColor=#5088bb;points=[[0.5,1,0],[0.5,5.69,0]];labelBackgroundColor=#ffffff;rounded=0;html=1;whiteSpace=wrap;verticalAlign=middle;align=center;overflow=width;startArrow=none;endArrow=none;startSize=7;endSize=7;spacingTop=0;spacingBottom=0;spacingLeft=0;spacingRight=0;exitX=0.6381578947368421;exitY=1;exitDx=0;exitDy=0;exitPerimeter=0;entryX=0.504950495049505;entryY=0;entryDx=0;entryDy=0;entryPerimeter=0;" parent="1" source="196" target="190" edge="1">
            <mxGeometry relative="1" as="geometry">
              <mxPoint x="12" y="38" as="offset" />
              <Array as="points" />
            </mxGeometry>
          </mxCell>
        </UserObject>
        <UserObject label="&lt;div style=&quot;font-size: 1px&quot;&gt;&lt;font style=&quot;font-size:11.29px;font-family:Calibri;color:#2e4f6c;direction:ltr;letter-spacing:0px;line-height:120%;opacity:1&quot;&gt;1&lt;br/&gt;&lt;/font&gt;&lt;/div&gt;" tags="Connector" id="216">
          <mxCell style="vsdxID=141;fillColor=none;gradientColor=none;edgeStyle=none;strokeColor=#5088bb;points=[[0.5,1,0],[0.5,9.82,0]];labelBackgroundColor=#ffffff;rounded=0;html=1;whiteSpace=wrap;verticalAlign=middle;align=center;overflow=width;startArrow=none;endArrow=none;startSize=7;endSize=7;spacingTop=0;spacingBottom=0;spacingLeft=0;spacingRight=0;exitX=0.7425742574257426;exitY=0.7631578947368421;exitDx=0;exitDy=0;exitPerimeter=0;entryX=0.6578947368421053;entryY=0;entryDx=0;entryDy=0;entryPerimeter=0;" parent="1" source="154" target="121" edge="1">
            <mxGeometry relative="1" as="geometry">
              <mxPoint x="12" y="66" as="offset" />
              <Array as="points" />
            </mxGeometry>
          </mxCell>
        </UserObject>
        <UserObject label="&lt;div style=&quot;font-size: 1px&quot;&gt;&lt;font style=&quot;font-size:11.29px;font-family:Calibri;color:#2e4f6c;direction:ltr;letter-spacing:0px;line-height:120%;opacity:1&quot;&gt;n&lt;br/&gt;&lt;/font&gt;&lt;/div&gt;" tags="Connector" id="217">
          <mxCell style="vsdxID=136;fillColor=none;gradientColor=none;edgeStyle=none;strokeColor=#5088bb;points=[[0.5,1,0],[0.5,19.74,0]];labelBackgroundColor=#ffffff;rounded=0;html=1;whiteSpace=wrap;verticalAlign=middle;align=center;overflow=width;startArrow=none;endArrow=none;startSize=7;endSize=7;spacingTop=0;spacingBottom=0;spacingLeft=0;spacingRight=0;exitX=0.5460526315789473;exitY=1.00990099009901;exitDx=0;exitDy=0;exitPerimeter=0;entryX=0.504950495049505;entryY=0;entryDx=0;entryDy=0;entryPerimeter=0;" parent="1" target="154" edge="1">
            <mxGeometry relative="1" as="geometry">
              <mxPoint x="12" y="133" as="offset" />
              <Array as="points" />
              <mxPoint x="1276" y="240.99999999999977" as="sourcePoint" />
            </mxGeometry>
          </mxCell>
        </UserObject>
        <UserObject label="&lt;div style=&quot;font-size: 1px&quot;&gt;&lt;font style=&quot;font-size:11.29px;font-family:Calibri;color:#2e4f6c;direction:ltr;letter-spacing:0px;line-height:120%;opacity:1&quot;&gt;1&lt;br/&gt;&lt;/font&gt;&lt;/div&gt;" tags="Connector" id="218">
          <mxCell style="vsdxID=130;fillColor=none;gradientColor=none;edgeStyle=none;strokeColor=#5088bb;points=[[0,1,0],[-2.45,7.75,0]];labelBackgroundColor=#ffffff;rounded=0;html=1;whiteSpace=wrap;verticalAlign=middle;align=center;overflow=width;startArrow=none;endArrow=none;startSize=7;endSize=7;spacingTop=0;spacingBottom=0;spacingLeft=0;spacingRight=0;exitX=0;exitY=1.00990099009901;exitDx=0;exitDy=0;exitPerimeter=0;entryX=0.8712871287128713;entryY=0.3684210526315789;entryDx=0;entryDy=0;entryPerimeter=0;" parent="1" target="141" edge="1">
            <mxGeometry relative="1" as="geometry">
              <mxPoint y="52" as="offset" />
              <Array as="points" />
              <mxPoint x="1738.9999999999995" y="616.0000000000002" as="sourcePoint" />
            </mxGeometry>
          </mxCell>
        </UserObject>
        <UserObject label="n" tags="Connector" id="219">
          <mxCell style="vsdxID=125;fillColor=none;gradientColor=none;edgeStyle=none;strokeColor=#5088bb;points=[[0,0.5,0],[-14.21,0.5,0]];labelBackgroundColor=#ffffff;rounded=0;html=1;whiteSpace=wrap;verticalAlign=middle;align=center;overflow=width;startArrow=none;endArrow=none;startSize=7;endSize=7;spacingTop=0;spacingBottom=0;spacingLeft=0;spacingRight=0;exitX=0;exitY=0.5;exitDx=0;exitDy=0;exitPerimeter=0;entryX=1;entryY=0.43564356435643564;entryDx=0;entryDy=0;entryPerimeter=0;" parent="1" source="141" target="121" edge="1">
            <mxGeometry relative="1" as="geometry">
              <mxPoint x="-1" as="offset" />
              <Array as="points" />
            </mxGeometry>
          </mxCell>
        </UserObject>
        <UserObject label="&lt;div style=&quot;font-size: 1px&quot;&gt;&lt;font style=&quot;font-size:11.29px;font-family:Calibri;color:#2e4f6c;direction:ltr;letter-spacing:0px;line-height:120%;opacity:1&quot;&gt;n&lt;br/&gt;&lt;/font&gt;&lt;/div&gt;" tags="Connector" id="220">
          <mxCell style="vsdxID=105;fillColor=none;gradientColor=none;edgeStyle=none;strokeColor=#5088bb;points=[[1,0.5,0]];labelBackgroundColor=#ffffff;rounded=0;html=1;whiteSpace=wrap;verticalAlign=middle;align=center;overflow=width;startArrow=none;endArrow=none;startSize=7;endSize=7;spacingTop=0;spacingBottom=0;spacingLeft=0;spacingRight=0;exitX=1.006578947368421;exitY=0.8811881188118812;exitDx=0;exitDy=0;exitPerimeter=0;entryX=0.33663366336633666;entryY=0.17105263157894737;entryDx=0;entryDy=0;entryPerimeter=0;" parent="1" target="118" edge="1">
            <mxGeometry relative="1" as="geometry">
              <mxPoint as="offset" />
              <Array as="points" />
              <mxPoint x="1346" y="228" as="sourcePoint" />
            </mxGeometry>
          </mxCell>
        </UserObject>
        <UserObject label="&lt;div style=&quot;font-size: 1px&quot;&gt;&lt;font style=&quot;font-size:11.29px;font-family:Calibri;color:#2e4f6c;direction:ltr;letter-spacing:0px;line-height:120%;opacity:1&quot;&gt;1&lt;br/&gt;&lt;/font&gt;&lt;/div&gt;" tags="Connector" id="221">
          <mxCell style="vsdxID=97;fillColor=none;gradientColor=none;edgeStyle=none;strokeColor=#5088bb;points=[[0,0.5,0],[1,0.5,0]];labelBackgroundColor=#ffffff;rounded=0;html=1;whiteSpace=wrap;verticalAlign=middle;align=center;overflow=width;startArrow=none;endArrow=none;startSize=7;endSize=7;spacingTop=0;spacingBottom=0;spacingLeft=0;spacingRight=0;exitX=0.8415841584158416;exitY=0.34210526315789475;exitDx=0;exitDy=0;exitPerimeter=0;entryX=0;entryY=0.7524752475247525;entryDx=0;entryDy=0;entryPerimeter=0;" parent="1" source="118" target="106" edge="1">
            <mxGeometry relative="1" as="geometry">
              <mxPoint as="offset" />
              <Array as="points" />
            </mxGeometry>
          </mxCell>
        </UserObject>
        <UserObject label="&lt;div style=&quot;font-size: 1px&quot;&gt;&lt;font style=&quot;font-size:11.29px;font-family:Calibri;color:#2e4f6c;direction:ltr;letter-spacing:0px;line-height:120%;opacity:1&quot;&gt;1&lt;br/&gt;&lt;/font&gt;&lt;/div&gt;" tags="Connector" id="222">
          <mxCell style="vsdxID=87;fillColor=none;gradientColor=none;edgeStyle=none;strokeColor=#5088bb;points=[[0,0.5,0],[1,0.5,0]];labelBackgroundColor=#ffffff;rounded=0;html=1;whiteSpace=wrap;verticalAlign=middle;align=center;overflow=width;startArrow=none;endArrow=none;startSize=7;endSize=7;spacingTop=0;spacingBottom=0;spacingLeft=0;spacingRight=0;exitX=1.00990099009901;exitY=0.5;exitDx=0;exitDy=0;exitPerimeter=0;entryX=0;entryY=0.43564356435643564;entryDx=0;entryDy=0;entryPerimeter=0;" parent="1" source="101" edge="1">
            <mxGeometry relative="1" as="geometry">
              <mxPoint as="offset" />
              <Array as="points" />
              <mxPoint x="1193" y="183" as="targetPoint" />
            </mxGeometry>
          </mxCell>
        </UserObject>
        <UserObject label="&lt;div style=&quot;font-size: 1px&quot;&gt;&lt;font style=&quot;font-size:11.29px;font-family:Calibri;color:#2e4f6c;direction:ltr;letter-spacing:0px;line-height:120%;opacity:1&quot;&gt;n&lt;br/&gt;&lt;/font&gt;&lt;/div&gt;" tags="Connector" id="223">
          <mxCell style="vsdxID=82;fillColor=none;gradientColor=none;edgeStyle=none;strokeColor=#5088bb;points=[[1,0.5,0]];labelBackgroundColor=#ffffff;rounded=0;html=1;whiteSpace=wrap;verticalAlign=middle;align=center;overflow=width;startArrow=none;endArrow=none;startSize=7;endSize=7;spacingTop=0;spacingBottom=0;spacingLeft=0;spacingRight=0;exitX=1;exitY=0.3465346534653465;exitDx=0;exitDy=0;exitPerimeter=0;entryX=0.04950495049504951;entryY=0.5526315789473685;entryDx=0;entryDy=0;entryPerimeter=0;" parent="1" target="101" edge="1">
            <mxGeometry relative="1" as="geometry">
              <mxPoint as="offset" />
              <Array as="points" />
              <mxPoint x="870.5" y="187" as="sourcePoint" />
            </mxGeometry>
          </mxCell>
        </UserObject>
        <UserObject label="&lt;div style=&quot;font-size: 1px&quot;&gt;&lt;font style=&quot;font-size:11.29px;font-family:Calibri;color:#2e4f6c;direction:ltr;letter-spacing:0px;line-height:120%;opacity:1&quot;&gt;n&lt;br/&gt;&lt;/font&gt;&lt;/div&gt;" tags="Connector" id="224">
          <mxCell style="vsdxID=67;fillColor=none;gradientColor=none;edgeStyle=none;strokeColor=#5088bb;points=[[0,0.5,0],[1,0.5,0]];labelBackgroundColor=#ffffff;rounded=0;html=1;whiteSpace=wrap;verticalAlign=middle;align=center;overflow=width;startArrow=none;endArrow=none;startSize=7;endSize=7;spacingTop=0;spacingBottom=0;spacingLeft=0;spacingRight=0;exitX=0.9207920792079208;exitY=0.5921052631578947;exitDx=0;exitDy=0;exitPerimeter=0;entryX=0;entryY=0.31683168316831684;entryDx=0;entryDy=0;entryPerimeter=0;" parent="1" source="83" edge="1">
            <mxGeometry relative="1" as="geometry">
              <mxPoint as="offset" />
              <Array as="points" />
              <mxPoint x="718.5" y="184" as="targetPoint" />
            </mxGeometry>
          </mxCell>
        </UserObject>
        <UserObject label="&lt;div style=&quot;font-size: 1px&quot;&gt;&lt;font style=&quot;font-size:11.29px;font-family:Calibri;color:#2e4f6c;direction:ltr;letter-spacing:0px;line-height:120%;opacity:1&quot;&gt;1&lt;br/&gt;&lt;/font&gt;&lt;/div&gt;" tags="Connector" id="225">
          <mxCell style="vsdxID=62;fillColor=none;gradientColor=none;edgeStyle=none;strokeColor=#5088bb;points=[[0,0.5,0],[1,0.5,0]];labelBackgroundColor=#ffffff;rounded=0;html=1;whiteSpace=wrap;verticalAlign=middle;align=center;overflow=width;startArrow=none;endArrow=none;startSize=7;endSize=7;spacingTop=0;spacingBottom=0;spacingLeft=0;spacingRight=0;exitX=1;exitY=0.24752475247524752;exitDx=0;exitDy=0;exitPerimeter=0;entryX=0.16831683168316833;entryY=0.6710526315789473;entryDx=0;entryDy=0;entryPerimeter=0;" parent="1" source="2" target="83" edge="1">
            <mxGeometry relative="1" as="geometry">
              <mxPoint as="offset" />
              <Array as="points" />
            </mxGeometry>
          </mxCell>
        </UserObject>
        <UserObject label="&lt;div style=&quot;font-size: 1px&quot;&gt;&lt;font style=&quot;font-size:11.29px;font-family:Calibri;color:#2e4f6c;direction:ltr;letter-spacing:0px;line-height:120%;opacity:1&quot;&gt;n&lt;br/&gt;&lt;/font&gt;&lt;/div&gt;" tags="Connector" id="226">
          <mxCell style="vsdxID=28;fillColor=none;gradientColor=none;edgeStyle=none;strokeColor=#5088bb;points=[[-6.37,19.74,0]];labelBackgroundColor=#ffffff;rounded=0;html=1;whiteSpace=wrap;verticalAlign=middle;align=center;overflow=width;startArrow=none;endArrow=none;startSize=7;endSize=7;spacingTop=0;spacingBottom=0;spacingLeft=0;spacingRight=0;exitX=0.5;exitY=1;exitDx=0;exitDy=0;exitPerimeter=0;entryX=0.504950495049505;entryY=0;entryDx=0;entryDy=0;entryPerimeter=0;" parent="1" source="2" target="40" edge="1">
            <mxGeometry relative="1" as="geometry">
              <mxPoint x="-1" y="134" as="offset" />
              <Array as="points" />
            </mxGeometry>
          </mxCell>
        </UserObject>
        <UserObject label="&lt;div style=&quot;font-size: 1px&quot;&gt;&lt;font style=&quot;font-size:11.29px;font-family:Calibri;color:#2e4f6c;direction:ltr;letter-spacing:0px;line-height:120%;opacity:1&quot;&gt;1&lt;br/&gt;&lt;/font&gt;&lt;/div&gt;" tags="Connector" id="227">
          <mxCell style="vsdxID=33;fillColor=none;gradientColor=none;edgeStyle=none;strokeColor=#5088bb;points=[[0.5,9.14,0]];labelBackgroundColor=#ffffff;rounded=0;html=1;whiteSpace=wrap;verticalAlign=middle;align=center;overflow=width;startArrow=none;endArrow=none;startSize=7;endSize=7;spacingTop=0;spacingBottom=0;spacingLeft=0;spacingRight=0;exitX=0.7821782178217822;exitY=0.7236842105263158;exitDx=0;exitDy=0;exitPerimeter=0;entryX=0.14473684210526316;entryY=0;entryDx=0;entryDy=0;entryPerimeter=0;" parent="1" source="40" edge="1">
            <mxGeometry relative="1" as="geometry">
              <mxPoint x="12" y="62" as="offset" />
              <Array as="points" />
              <mxPoint x="269" y="685" as="targetPoint" />
            </mxGeometry>
          </mxCell>
        </UserObject>
        <UserObject label="&lt;div style=&quot;font-size: 1px&quot;&gt;&lt;font style=&quot;font-size:11.29px;font-family:Calibri;color:#2e4f6c;direction:ltr;letter-spacing:0px;line-height:120%;opacity:1&quot;&gt;1&lt;br/&gt;&lt;/font&gt;&lt;/div&gt;" tags="Connector" id="228">
          <mxCell style="vsdxID=44;fillColor=none;gradientColor=none;edgeStyle=none;strokeColor=#5088bb;points=[[0.5,5.86,0]];labelBackgroundColor=#ffffff;rounded=0;html=1;whiteSpace=wrap;verticalAlign=middle;align=center;overflow=width;startArrow=none;endArrow=none;startSize=7;endSize=7;spacingTop=0;spacingBottom=0;spacingLeft=0;spacingRight=0;exitX=0.3069306930693069;exitY=0.8026315789473685;exitDx=0;exitDy=0;exitPerimeter=0;entryX=0.8026315789473685;entryY=0;entryDx=0;entryDy=0;entryPerimeter=0;" parent="1" source="60" edge="1">
            <mxGeometry relative="1" as="geometry">
              <mxPoint x="12" y="39" as="offset" />
              <Array as="points" />
              <mxPoint x="329" y="952" as="targetPoint" />
            </mxGeometry>
          </mxCell>
        </UserObject>
        <UserObject label="&lt;div style=&quot;font-size: 1px&quot;&gt;&lt;font style=&quot;font-size:11.29px;font-family:Calibri;color:#2e4f6c;direction:ltr;letter-spacing:0px;line-height:120%;opacity:1&quot;&gt;n&lt;br/&gt;&lt;/font&gt;&lt;/div&gt;" tags="Connector" id="229">
          <mxCell style="vsdxID=49;fillColor=none;gradientColor=none;edgeStyle=none;strokeColor=#5088bb;points=[[0.5,3.81,0]];labelBackgroundColor=#ffffff;rounded=0;html=1;whiteSpace=wrap;verticalAlign=middle;align=center;overflow=width;startArrow=none;endArrow=none;startSize=7;endSize=7;spacingTop=0;spacingBottom=0;spacingLeft=0;spacingRight=0;exitX=0.6710526315789473;exitY=1.00990099009901;exitDx=0;exitDy=0;exitPerimeter=0;entryX=0.504950495049505;entryY=0;entryDx=0;entryDy=0;entryPerimeter=0;" parent="1" target="60" edge="1">
            <mxGeometry relative="1" as="geometry">
              <mxPoint x="12" y="25" as="offset" />
              <Array as="points" />
              <mxPoint x="349" y="787" as="sourcePoint" />
            </mxGeometry>
          </mxCell>
        </UserObject>
        <mxCell id="yt0n5-OC1PuQeNcaQCxO-229" value="&lt;span style=&quot;color: rgb(255, 255, 255); font-family: Calibri; font-size: 14.11px;&quot;&gt;Bought&lt;/span&gt;" style="shape=ext;margin=3;double=1;whiteSpace=wrap;html=1;align=center;fillColor=#3399FF;" vertex="1" parent="1">
          <mxGeometry x="704.5" y="159" width="180" height="82" as="geometry" />
        </mxCell>
        <mxCell id="yt0n5-OC1PuQeNcaQCxO-230" value="&lt;span style=&quot;color: rgb(255, 255, 255); font-family: Calibri; font-size: 14.11px;&quot;&gt;Shop&lt;/span&gt;" style="shape=ext;margin=3;double=1;whiteSpace=wrap;html=1;align=center;fillColor=#103870;strokeColor=#6c8ebf;" vertex="1" parent="1">
          <mxGeometry x="1193" y="139" width="167" height="99" as="geometry" />
        </mxCell>
        <mxCell id="yt0n5-OC1PuQeNcaQCxO-232" value="Type" style="shape=ext;margin=3;double=1;whiteSpace=wrap;html=1;align=center;fillColor=#3399FF;" vertex="1" parent="1">
          <mxGeometry x="1737" y="517" width="153" height="79" as="geometry" />
        </mxCell>
        <mxCell id="yt0n5-OC1PuQeNcaQCxO-233" value="Cities" style="shape=ext;margin=3;double=1;whiteSpace=wrap;html=1;align=center;fillColor=#3399FF;" vertex="1" parent="1">
          <mxGeometry x="249" y="681" width="170" height="110" as="geometry" />
        </mxCell>
        <mxCell id="yt0n5-OC1PuQeNcaQCxO-235" value="Countries" style="shape=ext;margin=3;double=1;whiteSpace=wrap;html=1;align=center;fillColor=#3399FF;" vertex="1" parent="1">
          <mxGeometry x="205" y="940" width="150" height="109" as="geometry" />
        </mxCell>
        <mxCell id="yt0n5-OC1PuQeNcaQCxO-236" value="Genre" style="shape=ext;margin=3;double=1;whiteSpace=wrap;html=1;align=center;fillColor=#3399FF;" vertex="1" parent="1">
          <mxGeometry x="744" y="890" width="156" height="102" as="geometry" />
        </mxCell>
        <mxCell id="yt0n5-OC1PuQeNcaQCxO-237" value="" style="vsdxID=163;fillColor=none;gradientColor=none;edgeStyle=none;strokeColor=#5088bb;points=[[0.5,1,0],[0.5,5.69,0]];labelBackgroundColor=#ffffff;rounded=0;html=1;whiteSpace=wrap;verticalAlign=middle;align=center;overflow=width;startArrow=none;endArrow=none;startSize=7;endSize=7;spacingTop=0;spacingBottom=0;spacingLeft=0;spacingRight=0;exitX=0.6381578947368421;exitY=1;exitDx=0;exitDy=0;exitPerimeter=0;entryX=0.504950495049505;entryY=0;entryDx=0;entryDy=0;entryPerimeter=0;" edge="1" parent="1" source="167" target="196">
          <mxGeometry relative="1" as="geometry">
            <mxPoint x="12" y="38" as="offset" />
            <Array as="points" />
            <mxPoint x="795" y="685" as="sourcePoint" />
            <mxPoint x="795" y="749" as="targetPoint" />
          </mxGeometry>
        </mxCell>
        <mxCell id="196" value="&lt;div style=&quot;font-size: 1px&quot;&gt;&lt;font style=&quot;font-size:11.29px;font-family:Calibri;color:#2e4f6c;direction:ltr;letter-spacing:0px;line-height:120%;opacity:1&quot;&gt;n&lt;br/&gt;&lt;/font&gt;&lt;/div&gt;" style="text;vsdxID=163;fillColor=none;gradientColor=none;edgeStyle=none;strokeColor=none;points=[[0.5,1,0],[0.5,5.69,0]];labelBackgroundColor=#ffffff;rounded=0;html=1;whiteSpace=wrap;verticalAlign=middle;align=center;overflow=width;;html=1;" parent="1" vertex="1">
          <mxGeometry x="766.48" y="707" width="56.44" height="24.84" as="geometry" />
        </mxCell>
      </root>
    </mxGraphModel>
  </diagram>
</mxfile>
